<?xml version="1.0" encoding="utf-8"?>
<!-- Generator: Adobe Illustrator 16.0.0, SVG Export Plug-In . SVG Version: 6.00 Build 0)  -->
<!DOCTYPE svg PUBLIC "-//W3C//DTD SVG 1.1//EN" "http://www.w3.org/Graphics/SVG/1.1/DTD/svg11.dtd">
<svg version="1.1" id="Layer_1" xmlns="http://www.w3.org/2000/svg" xmlns:xlink="http://www.w3.org/1999/xlink" x="0px" y="0px"
	 width="679px" height="459px" viewBox="0 0 679 459" enable-background="new 0 0 679 459" xml:space="preserve">
<g>
	<path fill="#FFFFFF" d="M302.848,377.938c-94.241,0-167.618-42.408-182.589-105.525c-6.915-29.152-1.057-59.762,16.939-88.52
		c30.221-48.293,92.089-86.904,165.499-103.289c24.998-5.576,50.191-8.404,74.879-8.404c45.244,0,86.27,9.34,118.645,27.012
		c33.596,18.338,55.229,44.373,62.561,75.289c6.924,29.189,0.818,60.221-17.654,89.74c-31.174,49.816-93.563,89.326-166.893,105.689
		C350.42,375.244,326.402,377.938,302.848,377.938z"/>
	<g>
		<path d="M353.03,379.123c2.559-0.396,5.117-0.822,7.675-1.277C358.144,378.297,355.583,378.727,353.03,379.123z"/>
		<path d="M364.449,377.166c1.126-0.215,2.25-0.432,3.375-0.654C366.699,376.734,365.571,376.955,364.449,377.166z"/>
		<path d="M335.766,381.344c5.147-0.525,10.3-1.178,15.458-1.945C346.042,380.17,340.889,380.814,335.766,381.344z"/>
		<path d="M328.609,382.008c1.458-0.115,2.92-0.258,4.38-0.393C331.528,381.754,330.066,381.891,328.609,382.008z"/>
		<path d="M580.641,175.367c-8.812-36.188-34.242-66.352-73.539-87.234c-35.693-18.971-80.482-28.998-129.527-28.998
			c-26.357,0-53.219,2.934-79.837,8.717c-62.833,13.65-117.86,41.92-154.943,79.604c-39.701,40.346-55.467,87.594-44.395,133.043
			c17.396,71.396,99.557,119.367,204.448,119.367c25.221,0,50.907-2.803,76.349-8.33c62.771-13.635,118.202-42.564,156.081-81.453
			C575.609,268.678,591.721,220.832,580.641,175.367z M525.064,300.135c-35.949,36.908-88.827,64.42-148.896,77.467
			c-24.446,5.312-49.115,8.006-73.321,8.006c-98.191,0-174.786-43.598-190.596-108.484c-7.401-30.381-1.099-61.908,17.778-91.262
			c-5.011,8.672-8.955,17.495-11.85,26.387c22.464-61.646,95.643-116.742,190.276-135.938
			c124.712-25.298,239.43,21.332,256.229,104.15c1.135,5.586,1.775,11.193,1.982,16.801c-0.074-8.062-1.023-16.064-2.893-23.945
			c-1.662-7-4.014-13.758-7.039-20.242c4.498,8.109,7.867,16.688,10.057,25.668C576.662,219.263,561.844,262.375,525.064,300.135z"
			/>
		<path d="M319.89,382.596c0.663-0.033,1.326-0.072,1.991-0.113C321.216,382.523,320.553,382.559,319.89,382.596z"/>
	</g>
	<g>
		<g>
			<path fill="#CF2027" d="M216.698,189.402c-2.996-2.998-12.808-5.865-18.713-1.405c-5.902,4.47-8.29,11.024-5.844,15.544
				c1.949,3.615,7.722,8.065,11.823,9.576l2.181-4.939c-0.719-0.713-1.62-1.262-2.668-1.555c-5.516-1.525-5.796-5.75-5.747-7.005
				c0.103-2.772,1.876-6.06,6.553-6.991c0.582-0.12,1.495-0.299,2.559-0.299c2.797,0,6.605,1.273,8.023,8.395
				c0.249,1.232,0.996,4.99-0.318,8.343c-0.794,2.032-2.337,3.7-4.6,4.999c0,0.003-0.003,0.003-0.003,0.003
				s-1.211,0.827-3.711,1.634l0.418,5.547c5.472-0.318,8.058-0.899,11.332-6.048C223.204,207.006,219.695,192.4,216.698,189.402z"/>
		</g>
		<g>
			<path fill="#CF2027" d="M196.887,217.214c-0.197,0.003-0.39,0.009-0.58,0.009c-8.581,0-13.375-4.465-15.264-13.916
				c-1.547-7.773,2.266-19.137,18.118-25.572c0.247-0.105,0.48-0.22,0.711-0.352l-1.319-6.597c-2.016,1.521-4.323,3.114-6.471,4.249
				c-5.465,2.88-19.292,12.421-17.488,23.401c1.799,10.981,2.311,26.409,18.508,23.995c2.353-0.354,4.435-0.578,6.292-0.736
				l-0.56-4.598C198.208,217.148,197.569,217.193,196.887,217.214z"/>
		</g>
	</g>
	<g>
		<path d="M218.978,275.49c-1.074,0-2.031-0.76-2.25-1.852l-9.854-49.404c-0.712,0.184-1.448,0.349-2.207,0.504
			c-17.323,3.453-28.643-3.575-31.876-19.783c-3.264-16.357,9.304-29.377,23.203-35.023c0.014-0.002,0.032-0.009,0.045-0.018
			l-2.626-13.166c-0.003-0.025-0.007-0.049-0.01-0.076c-0.186-1.135-4.137-24.523,11.616-27.665
			c4.496-0.896,7.956,1.528,9.492,6.651c3.124,10.424-2.492,28.713-13.323,36.581l2.386,11.962
			c11.821-1.876,17.85,6.363,19.547,14.876c0.98,4.917,0.735,9.313-0.736,13.062c-1.887,4.804-5.609,8.368-11.116,10.648
			l9.964,49.957c0.249,1.242-0.561,2.449-1.805,2.697C219.277,275.473,219.128,275.49,218.978,275.49z M196.957,174.509
			c-11.842,5.084-22.354,16.05-19.662,29.544c2.728,13.697,11.639,19.143,26.474,16.183c0.762-0.155,1.497-0.327,2.207-0.512
			l-5.921-29.685c-4.293,2.145-6.027,6.17-6.15,9.437c-0.15,4.052,2.019,9.022,8.551,10.836c1.22,0.339,1.935,1.604,1.601,2.827
			c-0.341,1.219-1.608,1.935-2.83,1.596c-7.503-2.082-12.18-8.135-11.91-15.432c0.197-5.283,3.321-11.189,9.818-13.881
			L196.957,174.509z M204.47,188.709l5.876,29.459c3.853-1.793,6.453-4.372,7.762-7.709c1.157-2.957,1.326-6.389,0.508-10.482
			C217.826,196.01,214.877,187.176,204.47,188.709z M197.928,155.898l2.245,11.266c8.042-7.534,12.404-21.975,9.939-30.184
			c-1.22-4.066-3.307-3.646-4.194-3.469C194.836,135.72,197.781,154.936,197.928,155.898z"/>
	</g>
	<g>
		<g>
			<g>
				<path fill="#CF2027" d="M242.418,192.34c-0.827,0.007-1.424,0.421-1.763,1.227c-0.324,0.764-1.006,3.043-2.082,6.967
					c-0.987,3.6-1.712,6.307-2.205,8.242c-0.586-2.01-1.387-4.745-2.409-8.205c-1.14-3.832-1.892-6.161-2.225-6.913
					c-0.358-0.792-0.912-1.196-1.664-1.19l-0.007,0.004c-0.898,0.156-1.404,0.824-1.51,1.998c0.01,0.811,0.417,2.399,1.25,4.854
					c0.816,2.405,2.189,6.971,4.086,13.57c0.67,2.32,1.516,3.445,2.586,3.445h0.005l0,0c0.999-0.02,1.794-1.169,2.432-3.496
					c1.746-6.624,3.015-11.219,3.784-13.652c0.78-2.473,1.159-4.068,1.149-4.895C243.718,193.137,243.247,192.482,242.418,192.34z"
					/>
			</g>
			<g>
				<path fill="#CF2027" d="M259.347,208.487c-0.693,0.007-1.368,0.449-2.026,1.315c-1.288,1.607-2.719,2.438-4.236,2.48
					c-3.419-0.217-5.163-2.51-5.332-7.012c1.042,0.007,2.48,0.067,4.284,0.179c5.681-0.226,8.542-2.489,8.507-6.727
					c-0.08-4.257-2.231-6.504-6.397-6.669c-2.9,0.209-5.323,1.531-7.201,3.934c-1.871,2.396-2.808,5.652-2.778,9.687
					c0.454,6.577,3.089,10.271,7.821,10.993l0.014,0.003l0.011-0.003c2.906-0.055,5.113-0.812,6.558-2.251
					c1.445-1.436,2.179-2.72,2.186-3.823C260.732,209.201,260.259,208.489,259.347,208.487z M248.343,200.92
					c0.837-2.701,2.817-4.277,5.88-4.676c2.037-0.018,3.036,0.831,3.049,2.593c-0.01,1.45-1.838,2.2-5.434,2.239
					C250.884,201.059,249.708,201.008,248.343,200.92z"/>
			</g>
			<g>
				<path fill="#CF2027" d="M267.509,192.227c-1.347,0.15-2.36,0.71-3.028,1.672c-0.206-1.082-0.787-1.658-1.754-1.725
					c-0.87,0.096-1.385,0.796-1.518,2.098c0.01,1.262,0.122,2.57,0.337,3.885c0.209,1.297,0.425,6.513,0.634,15.518
					c0.087,1.631,0.63,2.465,1.604,2.465l0,0c1.065-0.008,1.667-0.891,1.796-2.639l-0.522-13.463
					c0.15-2.107,1.003-3.297,2.611-3.621c0.602,0.127,1.048,0.547,1.361,1.279c0.359,0.84,0.985,1.269,1.894,1.273
					c0.776-0.162,1.173-0.891,1.176-2.193C271.854,193.979,270.315,192.447,267.509,192.227z"/>
			</g>
		</g>
		<g>
			<g>
				<path d="M287.786,177.65l-17.735,0.185c-0.828,0.007-1.817,0.372-1.799,2.063c0.017,1.692,0.616,2.551,1.775,2.535l7.254-0.077
					l0.324,31.678c0.035,1.692,1.027,2.036,1.859,2.024c0.762-0.008,1.667-0.371,1.653-2.061l-0.299-31.673l7.09-0.078
					c1.159-0.011,1.741-0.874,1.72-2.571C289.609,177.988,288.617,177.644,287.786,177.65z"/>
			</g>
			<g>
				<path d="M300.365,191.802c-3.167,0.126-5.548,2.45-7.083,6.92l-0.317-18.17c-0.09-1.729-0.654-2.668-1.702-2.794
					c-0.954,0.021-1.497,0.727-1.619,2.104c0.007,1.012,0.258,11.924,0.759,33.346c0.014,1.49,0.578,2.331,1.674,2.498l0.017,0.004
					l0.024-0.008c1.062-0.139,1.619-0.904,1.661-2.254c0.424-6.346,1.291-10.869,2.569-13.441c1.263-2.539,2.6-3.834,3.951-3.854
					c1.368,0.204,2.123,2.004,2.255,5.338c0.028,3.034-0.007,7.021-0.115,11.859c0.018,1.424,0.491,2.205,1.413,2.315l0.021,0.002
					c1.11-0.009,1.72-0.757,1.81-2.22c0.146-4.871,0.202-9.01,0.167-12.294C305.74,195.053,303.895,191.904,300.365,191.802z"/>
			</g>
			<g>
				<path d="M322.19,207.835c-0.682,0.007-1.368,0.456-2.026,1.321c-1.288,1.603-2.719,2.435-4.233,2.479
					c-3.418-0.216-5.162-2.509-5.336-7.014c1.048,0.007,2.482,0.064,4.289,0.179c5.677-0.228,8.542-2.486,8.511-6.725
					c-0.087-4.261-2.231-6.502-6.405-6.67c-2.896,0.211-5.322,1.53-7.195,3.934c-1.876,2.396-2.809,5.65-2.778,9.689
					c0.456,6.572,3.084,10.27,7.815,10.989h0.014h0.014c2.903-0.054,5.113-0.813,6.554-2.253c1.445-1.436,2.179-2.721,2.189-3.82
					C323.579,208.554,323.109,207.842,322.19,207.835z M311.191,200.271c0.835-2.703,2.812-4.275,5.883-4.674
					c2.029-0.02,3.032,0.83,3.049,2.594c-0.011,1.445-1.842,2.194-5.434,2.236C313.732,200.408,312.552,200.359,311.191,200.271z"/>
			</g>
			<g>
				<path d="M332.971,200.769c-3.286,0.009-4.957-0.75-4.967-2.236c0.059-1.093,0.456-1.871,1.184-2.315
					c0.741-0.463,1.828-0.703,3.227-0.717c0.94-0.01,1.682,0.223,2.19,0.695c0.567,0.515,1.194,0.797,1.855,0.835h0.024l0.021-0.009
					c0.759-0.195,1.152-0.812,1.194-1.834c-0.174-2.411-1.828-3.764-4.925-4.022l-1.044-0.033c-4.167,0.499-6.579,2.83-7.167,6.951
					l-0.014,1.218c0.307,3.497,2.266,5.272,5.824,5.266c3.418,0,5.092,1.105,5.117,3.378c-0.073,2.075-1.357,3.144-3.916,3.264
					c-1.768-0.036-3.056-0.517-3.839-1.437c-0.849-1.004-1.58-1.486-2.224-1.48l-0.049,0.01c-0.654,0.246-0.975,0.893-0.968,1.932
					c0.227,3.401,2.381,5.307,6.412,5.684l0.867-0.011h0.01c4.205-0.556,6.6-2.779,7.125-6.636l0.056-1.821
					C338.453,203.009,336.434,200.76,332.971,200.769z"/>
			</g>
			<g>
				<path d="M354.92,207.5c-0.692,0.002-1.371,0.447-2.029,1.318c-1.291,1.606-2.715,2.435-4.229,2.479
					c-3.422-0.217-5.17-2.51-5.337-7.014c1.041,0.01,2.482,0.068,4.282,0.177c5.681-0.221,8.549-2.481,8.514-6.724
					c-0.087-4.26-2.234-6.502-6.401-6.667c-2.903,0.204-5.322,1.533-7.202,3.932c-1.872,2.396-2.801,5.653-2.773,9.69
					c0.456,6.568,3.086,10.269,7.814,10.991h0.017h0.011c2.906-0.054,5.113-0.813,6.559-2.254c1.444-1.438,2.175-2.717,2.186-3.822
					C356.306,208.215,355.829,207.502,354.92,207.5z M343.917,199.936c0.832-2.707,2.816-4.279,5.876-4.678
					c2.036-0.016,3.035,0.834,3.06,2.594c-0.018,1.449-1.849,2.2-5.438,2.24C346.458,200.074,345.282,200.021,343.917,199.936z"/>
			</g>
		</g>
		<g>
			<g>
				<path fill="#CF2027" d="M379.517,207.817h-0.021h-0.014c-0.843,0.176-1.657,0.483-2.409,0.913
					c-2.61,1.134-7.062,1.742-13.234,1.818l-0.323-31.47c-0.018-1.616-0.616-2.433-1.789-2.437c-1.128,0.029-1.706,0.879-1.72,2.534
					l0.348,31.921c0.077,2.643,1.139,4.029,3.154,4.136h0.007l6.07-0.124c3.526-0.336,6.75-1.045,9.59-2.111
					c1.271-0.549,1.908-1.547,1.894-2.955C381.013,208.615,380.491,207.867,379.517,207.817z"/>
			</g>
			<g>
				<path fill="#CF2027" d="M396.914,190.829l-0.024-0.005l-0.018,0.005c-1.083,0.138-1.653,0.901-1.692,2.254
					c-0.49,6.341-1.389,10.867-2.677,13.442c-1.256,2.541-2.597,3.835-3.95,3.851c-1.361-0.204-2.12-2-2.252-5.338
					c-0.031-3.021,0.059-7.009,0.261-11.856c-0.014-1.427-0.491-2.208-1.431-2.316c-1.11,0.011-1.72,0.752-1.811,2.199
					c-0.243,4.883-0.354,9.025-0.319,12.311c0.114,6.105,1.959,9.254,5.492,9.357c3.168-0.125,5.594-2.58,7.216-7.303
					c0.004,5.395-0.421,9.096-1.277,11.01c-0.888,1.98-2.151,2.994-3.773,3.014c-0.762,0.002-1.34-0.096-1.712-0.305
					c-0.418-0.229-0.975-0.342-1.637-0.334h-0.041l-0.039,0.018c-0.647,0.402-0.999,1.08-1.04,2.014
					c0.01,1.072,0.344,1.812,0.988,2.2c0.839,0.558,2.036,0.837,3.558,0.821h0.003c2.858-0.059,4.999-1.58,6.35-4.535
					c1.333-2.917,1.977-7.538,1.914-13.73c-0.052-4.188-0.194-8.991-0.414-14.282C398.57,191.832,398.007,190.994,396.914,190.829z"
					/>
			</g>
			<g>
				<path fill="#CF2027" d="M405.929,190.798c-1.343,0.151-2.359,0.714-3.024,1.673c-0.205-1.08-0.787-1.659-1.755-1.73
					c-0.873,0.1-1.385,0.801-1.518,2.103c0.011,1.265,0.126,2.57,0.335,3.883c0.208,1.298,0.424,6.517,0.637,15.515
					c0.087,1.637,0.63,2.464,1.604,2.469l0,0c1.065-0.012,1.667-0.891,1.793-2.637l-0.519-13.463
					c0.149-2.109,1.002-3.293,2.61-3.623c0.603,0.131,1.048,0.547,1.361,1.285c0.354,0.837,0.981,1.269,1.89,1.269
					c0.776-0.157,1.177-0.892,1.18-2.188C410.27,192.551,408.738,191.019,405.929,190.798z"/>
			</g>
			<g>
				<path fill="#CF2027" d="M413.785,185.235h0.015h0.017c1.065-0.187,1.692-1.034,1.873-2.534
					c-0.014-1.531-0.581-2.492-1.685-2.855l-0.042-0.008c-1.155,0.009-1.852,0.761-2.067,2.249
					C411.938,184.116,412.57,185.171,413.785,185.235z"/>
			</g>
			<g>
				<path fill="#CF2027" d="M417.97,209.849c-0.355,0.001-0.672,0.075-0.943,0.208c-0.227,0.112-0.478,0.17-0.728,0.175
					c-0.808,0.001-1.351-1.474-1.566-4.283v-12.753c-0.028-1.576-0.574-2.363-1.619-2.351c-1.058,0.009-1.618,0.796-1.649,2.345
					l-0.035,12.59c0.108,5.633,1.685,8.638,4.696,8.93h0.007h0.007c1.945-0.034,2.931-1.08,2.931-3.131
					C418.947,210.425,418.578,209.84,417.97,209.849z"/>
			</g>
			<g>
				<path fill="#CF2027" d="M433.045,204.998c-0.766,0.024-1.271,0.412-1.489,1.152c-0.202,0.652-0.752,1.549-1.63,2.659
					c-0.863,1.089-1.98,1.655-3.313,1.685c-2.308-0.059-3.596-2.31-3.836-6.689c-0.007-2.555,0.564-4.719,1.699-6.428
					c1.124-1.701,2.317-2.572,3.554-2.6c0.835-0.01,1.566,0.17,2.158,0.518c0.634,0.381,1.242,0.578,1.8,0.585
					c0.953-0.087,1.444-0.743,1.451-1.962c-0.069-2.158-1.932-3.32-5.545-3.432c-2.757,0.32-4.866,1.742-6.272,4.228
					c-1.389,2.468-2.078,5.702-2.051,9.61c0.178,6.973,2.639,10.521,7.3,10.54l0.003-0.001l0.004,0.001
					c2.214-0.091,4.034-0.988,5.406-2.671c1.36-1.668,2.095-3.328,2.165-4.947C434.371,205.806,433.905,205.052,433.045,204.998z"/>
			</g>
			<g>
				<path fill="#CF2027" d="M443.756,199.623c-3.282,0.01-4.957-0.75-4.968-2.238c0.063-1.084,0.46-1.863,1.184-2.314
					c0.745-0.459,1.828-0.699,3.228-0.715c0.943-0.008,1.681,0.225,2.196,0.692c0.561,0.524,1.19,0.801,1.848,0.835l0.024,0.006
					l0.024-0.009c0.752-0.204,1.152-0.813,1.188-1.838c-0.167-2.407-1.817-3.763-4.919-4.024l-1.048-0.027
					c-4.163,0.496-6.575,2.83-7.167,6.951l-0.014,1.215c0.303,3.5,2.266,5.271,5.827,5.27c3.415-0.005,5.089,1.105,5.113,3.371
					c-0.073,2.075-1.357,3.147-3.912,3.268c-1.769-0.035-3.057-0.518-3.84-1.439c-0.853-0.999-1.577-1.482-2.225-1.477l-0.052,0.012
					c-0.647,0.246-0.975,0.891-0.964,1.93c0.226,3.396,2.377,5.309,6.411,5.684l0.867-0.006l0.007-0.004
					c4.205-0.555,6.604-2.781,7.125-6.642l0.056-1.815C449.238,201.865,447.227,199.618,443.756,199.623z"/>
			</g>
		</g>
	</g>
	<g>
		<path d="M263.726,278.504c-2.76,0-5.012-1.023-6.338-2.885c-2.851-3.992-0.432-10.43,5.493-14.662
			c2.948-2.102,6.342-3.311,9.315-3.311c2.76,0,5.009,1.027,6.342,2.887c1.462,2.053,1.587,4.887,0.334,7.775
			c-1.104,2.545-3.175,4.988-5.834,6.885C270.092,277.301,266.698,278.504,263.726,278.504z M272.195,262.242
			c-2.037,0-4.459,0.895-6.645,2.453c-3.913,2.795-5.562,6.666-4.424,8.26c0.595,0.832,1.883,0.959,2.6,0.959
			c2.04,0,4.459-0.893,6.648-2.455c1.96-1.398,3.523-3.217,4.278-4.975c0.599-1.377,0.651-2.576,0.143-3.285
			C274.203,262.367,272.912,262.242,272.195,262.242z"/>
	</g>
	<g>
		<path d="M276.772,264.258c-1.152,0-2.144-0.863-2.276-2.037l-4.097-35.525c-0.146-1.256,0.755-2.395,2.012-2.541
			c1.26-0.152,2.401,0.76,2.548,2.016l4.097,35.525c0.143,1.264-0.759,2.398-2.019,2.549
			C276.946,264.25,276.859,264.258,276.772,264.258z"/>
	</g>
	<g>
		<path d="M390.021,289.877c-3.053,0-5.527-1.125-6.979-3.158c-3.143-4.414-0.421-11.57,6.203-16.289
			c3.311-2.367,7.118-3.723,10.446-3.723c3.046,0,5.524,1.121,6.976,3.154c1.629,2.283,1.751,5.326,0.348,8.562
			c-1.231,2.852-3.557,5.598-6.547,7.732C397.153,288.52,393.346,289.877,390.021,289.877z M399.691,271.299
			c-2.392,0-5.229,1.049-7.78,2.865c-4.622,3.297-6.52,7.939-5.134,9.889c0.766,1.072,2.36,1.232,3.244,1.232
			c2.388,0,5.225-1.047,7.776-2.869c2.287-1.629,4.11-3.752,5.006-5.812c0.724-1.682,0.772-3.164,0.125-4.072
			C402.166,271.459,400.568,271.299,399.691,271.299z"/>
	</g>
	<g>
		<path d="M404.92,273.6c-1.152,0-2.145-0.863-2.276-2.033l-4.683-40.58c-0.146-1.255,0.756-2.393,2.02-2.539
			c1.26-0.154,2.395,0.758,2.544,2.014l4.679,40.584c0.143,1.256-0.759,2.398-2.019,2.541
			C405.094,273.596,405.01,273.6,404.92,273.6z"/>
	</g>
	<g>
		<path d="M237.695,264.836c-1.177,0-2.179-0.895-2.289-2.09l-3.604-40.109c-0.113-1.264,0.816-2.377,2.082-2.49
			c1.243-0.105,2.379,0.818,2.491,2.08l3.606,40.113c0.117,1.256-0.816,2.369-2.08,2.488
			C237.829,264.832,237.763,264.836,237.695,264.836z"/>
	</g>
	<g>
		<path d="M237.649,250.131c0,0,1.6-4.938,7.235-4.602c5.637,0.336,2.964,11.199-7.188,17.012c0,0,2.306,0.328,5.729-1.273
			c3.42-1.602,13.93-9.357,8.472-18.748C246.438,233.127,235.974,244.906,237.649,250.131z"/>
		<path d="M238.247,263.334L238.247,263.334c-0.426,0-0.658-0.033-0.658-0.033c-0.327-0.049-0.581-0.297-0.644-0.621
			c-0.058-0.316,0.087-0.641,0.369-0.803c7.294-4.178,10.307-10.844,9.604-13.855c-0.256-1.082-0.952-1.662-2.08-1.729
			c-4.938-0.285-6.399,3.904-6.458,4.076c-0.104,0.312-0.395,0.525-0.729,0.525l0,0c-0.331,0-0.623-0.213-0.726-0.529
			c-0.626-1.945,0.155-4.756,2.038-7.342c1.688-2.318,4.619-4.793,7.771-4.793c1.629,0,3.953,0.68,5.826,3.902
			c1.712,2.945,2.095,5.994,1.135,9.064c-1.831,5.844-7.944,9.826-9.942,10.762C241.193,263.154,239.206,263.334,238.247,263.334z
			 M244.341,244.744c0.19,0,0.388,0.006,0.59,0.02c1.799,0.109,3.068,1.166,3.474,2.91c1.011,4.312-2.868,10.061-7.715,13.781
			c0.707-0.188,1.518-0.463,2.413-0.881c2.313-1.082,7.59-4.912,9.129-9.836c0.825-2.643,0.494-5.273-0.996-7.836
			c-1.212-2.082-2.723-3.137-4.503-3.137c-2.155,0-4.663,1.592-6.534,4.164c-0.83,1.137-1.422,2.324-1.727,3.406
			C239.613,246.041,241.472,244.744,244.341,244.744z"/>
	</g>
	<g>
		<path d="M221.239,272.73c2.301,4.793-2.276,11.771-10.227,15.59c-7.958,3.818-16.266,3.029-18.571-1.768
			c-2.302-4.793,2.277-11.775,10.234-15.596C210.621,267.139,218.938,267.934,221.239,272.73z"/>
	</g>
	<g>
		<path d="M457.383,259.777c2.301,4.797-2.279,11.779-10.229,15.594c-7.954,3.818-16.263,3.029-18.567-1.764
			c-2.304-4.793,2.276-11.777,10.23-15.596C446.767,254.193,455.078,254.984,457.383,259.777z"/>
	</g>
	<g>
		<path d="M319.308,238.039c1.817,3.781-1.796,9.283-8.065,12.299c-6.272,3.006-12.824,2.383-14.644-1.4
			c-1.813-3.777,1.799-9.283,8.069-12.291C310.937,233.633,317.495,234.26,319.308,238.039z"/>
	</g>
	<g>
		<path d="M455.514,264.725c-0.023,0-0.049,0-0.072-0.008c-1.268-0.039-2.26-1.096-2.225-2.359l2.146-71.021
			c0.039-1.266,1.09-2.268,2.367-2.227c1.268,0.039,2.264,1.097,2.229,2.365l-2.152,71.018
			C457.77,263.738,456.746,264.725,455.514,264.725z"/>
	</g>
	<g>
		<path d="M349.964,269.469c1.273,2.645-1.257,6.502-5.649,8.615c-4.393,2.105-8.984,1.666-10.254-0.979
			c-1.274-2.648,1.257-6.51,5.65-8.615C344.099,266.385,348.689,266.818,349.964,269.469z"/>
	</g>
	<g>
		<path d="M347.851,272.363c-0.024,0-0.052,0-0.08,0c-1.264-0.041-2.256-1.102-2.217-2.369l1.18-35.381
			c0.027-0.838,0.508-1.594,1.257-1.973L371.037,221c0.724-0.364,1.583-0.32,2.27,0.114c0.682,0.432,1.089,1.202,1.058,2.011
			l-1.177,35.381c-0.041,1.264-1.12,2.25-2.366,2.219c-1.268-0.043-2.267-1.107-2.221-2.375l1.047-31.504l-18.372,9.283
			l-1.131,34.018C350.1,271.387,349.086,272.363,347.851,272.363z"/>
	</g>
	<g>
		<path d="M373.011,257.824c1.271,2.648-1.257,6.502-5.649,8.611c-4.394,2.109-8.984,1.672-10.255-0.977
			c-1.271-2.646,1.257-6.504,5.649-8.613C367.148,254.74,371.736,255.176,373.011,257.824z"/>
	</g>
	<g>
		<g>
			<path d="M344.321,228.613c-62.822,0-124.188-3.943-125.192-4.008l0.15-2.293c1.634,0.111,164.303,10.568,230.92-2.723
				c22.154-4.421,37.123-15.982,41.053-31.718c3.125-12.528-1.352-25.944-11.404-34.185c-6.24-5.104-20.426-8.85-33.388-6.264
				c-23.272,4.641-40.708,4.4-51.809-0.715c-8.065-3.718-12.852-9.869-14.634-18.806c-1.037-5.183,1.124-10.789,5.781-14.983
				c8.239-7.428,31.346-17.004,93.527,2.271l-0.682,2.193c-61.093-18.943-83.43-9.86-91.311-2.763
				c-4.045,3.651-5.941,8.446-5.068,12.836c1.63,8.159,5.994,13.777,13.346,17.164c10.659,4.913,27.61,5.097,50.403,0.552
				c10.692-2.134,26.815-0.198,35.286,6.744c10.738,8.797,15.52,23.127,12.18,36.508c-4.156,16.637-19.766,28.818-42.833,33.418
				C424.667,227.025,384.198,228.613,344.321,228.613z"/>
		</g>
		<g>
			<path d="M326.611,242.111c-21.161,0-41.781-0.459-59.52-1.051c-47.247-1.566-84.729-4.365-85.1-4.389l0.168-2.291
				c0.373,0.027,37.816,2.82,85.015,4.387c43.542,1.443,104.516,2.111,147.755-2.904c17.763-2.102,49.288-6.811,60.853-14.783
				c9.162-6.322,20.008-17.225,19.604-33.287c-0.32-12.951-8.051-23.445-15.57-28.094c-8.566-5.299-25.525-7.548-40.325-5.358
				c-27.562,4.085-44.688,0.065-53.897-12.651c-3.456-4.775-5.231-9.359-5.284-13.631c-0.052-4.68,2.476-9.129,7.111-12.527
				c15.372-11.271,49.474-9.848,91.228,3.823l-0.719,2.181c-41.049-13.436-74.375-14.99-89.154-4.15
				c-4.08,2.991-6.214,6.674-6.168,10.647c0.045,3.786,1.678,7.929,4.845,12.31c8.654,11.949,25.08,15.677,51.705,11.728
				c15.278-2.265,32.892,0.124,41.872,5.676c9.662,5.978,16.355,18.034,16.654,29.993c0.426,17.082-10.967,28.59-20.602,35.229
				c-11.971,8.259-43.911,13.052-61.884,15.177C389.458,241.131,357.472,242.111,326.611,242.111z"/>
		</g>
		<g>
			<path d="M314.738,253.756c-13.255,0-26.138-0.129-37.976-0.316c-52.277-0.812-96.108-2.971-96.548-2.99l0.113-2.295
				c0.437,0.021,44.242,2.172,96.48,2.994c48.189,0.752,113.604,0.494,151.605-5.029c34.283-4.979,61.918-19.371,67.205-35.002
				c3.133-9.258,3.115-23.504-3.986-34.471c-6.254-9.656-16.689-15.248-31.021-16.613c-3.801-0.363-9.704,0.298-15.952,0.992
				c-4.383,0.492-8.918,1-12.81,1.139c-26.5,0.966-40.409-4.915-48.022-20.295c-2.739-5.535-3.752-9.863-3.182-13.628
				c0.679-4.445,3.415-8.134,8.135-10.964c16.159-9.682,51.169-7.236,89.198,6.242l-0.77,2.16
				c-19.139-6.777-37.691-10.842-53.665-11.745c-14.563-0.819-26.492,1.063-33.583,5.313c-4.107,2.461-6.475,5.602-7.042,9.336
				c-0.498,3.279,0.442,7.174,2.966,12.268c7.14,14.434,20.437,19.946,45.878,19.02c3.808-0.141,8.298-0.639,12.643-1.125
				c6.366-0.709,12.382-1.383,16.425-1c14.85,1.421,26.166,7.523,32.729,17.652c7.521,11.611,7.547,26.678,4.236,36.455
				c-2.652,7.841-10.746,15.74-22.775,22.238c-12.559,6.781-28.558,11.727-46.271,14.299
				C399.949,252.576,355.543,253.756,314.738,253.756z"/>
		</g>
		<g>
			<path d="M295.534,266.947c-62.252,0-113.317-3.041-114.222-3.102l0.143-2.287c1.598,0.098,161.061,9.602,260.471-5.178
				c21.769-3.242,37.874-10.371,47.882-21.193c8.188-8.855,11.824-20.176,10.242-31.863c-1.348-9.972-6.408-19.6-13.879-26.415
				c-7.787-7.098-17.217-10.376-26.549-9.245c-12.51,1.527-24.396,2.305-35.334,2.314c-0.021,0-0.045,0-0.066,0
				c-22.458,0-35.842-8.873-42.129-27.915c-1.834-5.552-2.189-10.004-1.089-13.622c1.322-4.348,4.539-7.77,9.568-10.175
				c18.772-8.991,58.712-1.853,86.757,9.425l-0.855,2.129c-32.449-13.045-68.953-17.123-84.909-9.482
				c-4.424,2.114-7.236,5.066-8.364,8.77c-0.958,3.152-0.605,7.154,1.072,12.236c6.011,18.213,18.333,26.34,39.946,26.34
				c0.024,0,0.049,0,0.066,0c10.843-0.013,22.64-0.782,35.058-2.295c10.016-1.223,20.09,2.266,28.369,9.825
				c7.871,7.173,13.189,17.306,14.613,27.8c1.674,12.382-2.172,24.365-10.832,33.734c-10.365,11.219-26.932,18.584-49.229,21.902
				C398.748,265.121,343.781,266.947,295.534,266.947z"/>
		</g>
		<g>
			<path d="M277.935,282.434c-0.014,0-0.007,0-0.018,0c-54.367,0-96.017-2.676-96.432-2.703l0.15-2.295
				c0.413,0.025,42.004,2.705,96.299,2.705c50.083,0,121.527-2.344,177.446-13.496c33.139-6.613,49.467-22.697,48.523-47.822
				c-0.654-17.535-5.809-30.225-15.309-37.728c-8.893-7.021-21.473-9.161-36.385-6.186c-14.08,2.81-30.309,5.155-43.939,1.245
				c-15.082-4.322-24.206-15.408-27.889-33.885c-1.761-8.834,0.334-15.57,6.228-20.033c5.701-4.316,17.992-8.586,44.162-4.386
				c16.346,2.623,34.384,8.134,45.954,14.036l-1.045,2.045c-21.205-10.823-70.605-22.787-87.687-9.862
				c-5.13,3.885-6.937,9.856-5.363,17.749c7.521,37.723,37.673,37.113,69.13,30.842c15.59-3.111,28.82-0.818,38.262,6.633
				c10.049,7.938,15.49,21.209,16.176,39.442c0.525,13.981-4.156,25.462-13.91,34.13c-8.445,7.494-20.715,12.889-36.459,16.029
				C424.861,275.068,368.851,282.434,277.935,282.434z"/>
		</g>
	</g>
	<g>
		<path d="M348.676,247.545c-0.923,0-1.793-0.561-2.145-1.473c-0.456-1.186,0.136-2.512,1.319-2.969l22.953-8.811
			c1.184-0.455,2.513,0.137,2.969,1.32c0.453,1.184-0.143,2.51-1.322,2.965l-22.953,8.814
			C349.226,247.5,348.95,247.545,348.676,247.545z"/>
	</g>
	<path fill="#CF2027" d="M573.715,177.053c-8.32-34.155-32.512-62.725-69.959-82.625c-34.668-18.426-78.303-28.164-126.182-28.164
		c-25.846,0-52.197,2.877-78.325,8.555c-61.496,13.359-115.254,40.934-151.375,77.637c-37.906,38.521-53.016,83.395-42.55,126.355
		c16.602,68.139,95.98,113.926,197.522,113.926c24.714,0,49.89-2.746,74.834-8.166c61.42-13.342,115.576-41.562,152.49-79.461
		C568.729,265.523,584.191,220.049,573.715,177.053z M373.799,367.977c-120.018,26.783-232.662-16.207-251.594-96.027
		c-18.931-79.812,60.91-162.607,180.928-189.393c120.02-26.779,234.773,12.588,253.703,92.404
		C575.768,254.775,493.816,341.195,373.799,367.977z"/>
	<g>
		<path fill="#CF2027" d="M185.192,308.356l0.616,1.416c-0.144,0.113-0.459,0.211-0.947,0.288c-0.488,0.082-1.122,0.153-1.902,0.215
			c-0.903,0.883-1.804,1.617-2.703,2.197c-0.898,0.585-1.789,1.017-2.671,1.294c-0.206,0.061-0.441,0.128-0.708,0.199
			c-0.164,0-0.344-0.03-0.539-0.097c-0.195-0.067-0.411-0.165-0.646-0.288c-0.247-0.153-0.437-0.303-0.57-0.446
			s-0.2-0.293-0.2-0.446c0-0.309,0.149-0.605,0.447-0.894c0.297-0.287,0.734-0.56,1.309-0.815c1.15-0.534,2.284-1.073,3.403-1.617
			c0.164,0,0.282,0.036,0.354,0.103s0.108,0.148,0.108,0.251c0,0.277-0.198,0.514-0.593,0.703c-0.396,0.19-0.593,0.324-0.593,0.406
			c0.072,0.103,0.134,0.154,0.185,0.154c0.133,0,0.429-0.201,0.885-0.602c0.457-0.4,0.68-0.651,0.67-0.754l-0.077-0.354l0.031-0.062
			c0.267-0.236,0.465-0.446,0.593-0.631c0.128-0.186,0.192-0.334,0.192-0.447c0-0.256-0.128-0.601-0.385-1.031
			c-0.256-0.432-0.642-0.949-1.155-1.556c-0.39-0.472-0.78-0.893-1.17-1.268s-0.765-0.708-1.124-0.996
			c-0.144-0.123-0.267-0.241-0.37-0.358c-0.103-0.118-0.185-0.231-0.246-0.334c-0.113-0.205-0.203-0.375-0.27-0.508
			c-0.067-0.134-0.126-0.221-0.177-0.263c-0.051-0.062-0.121-0.133-0.208-0.221c-0.087-0.087-0.193-0.189-0.316-0.303
			c-0.215-0.226-0.382-0.538-0.5-0.938s-0.177-0.898-0.177-1.494c0-0.391,0.054-0.765,0.162-1.129
			c0.107-0.365,0.264-0.693,0.469-0.98c0.031-0.062,0.062-0.134,0.093-0.216s0.066-0.175,0.107-0.277
			c0.236-0.482,0.637-1.001,1.201-1.561c0.565-0.56,1.304-1.154,2.217-1.78c0.124-0.062,0.272-0.145,0.447-0.247
			s0.37-0.236,0.585-0.4c0.124-0.103,0.259-0.194,0.408-0.277c0.149-0.082,0.326-0.159,0.531-0.23
			c0.277-0.113,0.59-0.236,0.939-0.37c0.513-0.267,0.939-0.462,1.278-0.585s0.596-0.185,0.77-0.185c0.339,0,0.593,0.103,0.762,0.308
			c0.169,0.206,0.254,0.503,0.254,0.894c0,0.432-0.033,0.785-0.1,1.058c-0.066,0.271-0.156,0.451-0.269,0.544
			c-1.211,0.965-2.187,1.693-2.926,2.182c-0.739,0.487-1.258,0.729-1.555,0.729c-0.144,0-0.257-0.041-0.339-0.123
			s-0.124-0.205-0.124-0.37c0-0.276,0.231-0.579,0.693-0.913c0.462-0.334,0.688-0.591,0.677-0.765l-0.139-0.093
			c-0.051,0-0.11,0.016-0.177,0.046c-0.067,0.031-0.136,0.072-0.208,0.124c-0.903,0.729-1.583,1.386-2.041,1.966
			c-0.457,0.579-0.685,1.083-0.685,1.514c0,0.339,0.059,0.683,0.177,1.032c0.118,0.349,0.29,0.708,0.516,1.077
			c0.165,0.257,0.403,0.585,0.716,0.98c0.313,0.396,0.711,0.868,1.193,1.422c0.667,0.771,1.18,1.365,1.54,1.786
			s0.56,0.642,0.601,0.662c0.206,0.268,0.38,0.534,0.523,0.801c0.144,0.268,0.242,0.523,0.293,0.771
			c0.051,0.194,0.087,0.436,0.107,0.724c0.021,0.287,0.031,0.637,0.031,1.047c0,0.241,0.036,0.38,0.108,0.416
			c0.072,0.035,0.19,0.057,0.354,0.057c0.062,0,0.11-0.016,0.146-0.041C185.113,308.428,185.151,308.397,185.192,308.356z"/>
		<path fill="#CF2027" d="M185.177,308.371l0.092-0.107l0.046-0.154c0.277-0.38,0.765-0.878,1.463-1.488
			c0.698-0.61,1.181-1.104,1.447-1.483c0.103-0.164,0.221-0.282,0.354-0.354c0.133-0.071,0.267-0.107,0.4-0.107
			c0.359,0,0.662,0.087,0.908,0.267c0.247,0.18,0.411,0.452,0.493,0.812c0.072,0.318,0.139,0.636,0.2,0.96
			c0.062,0.323,0.113,0.651,0.154,0.98c0.072,0.205,0.159,0.513,0.262,0.929s0.18,0.657,0.231,0.719
			c0.051,0.103,0.128,0.175,0.231,0.221s0.231,0.071,0.385,0.071c0.185,0,0.375-0.035,0.57-0.103
			c0.195-0.066,0.396-0.18,0.601-0.344c0.154-0.134,0.316-0.272,0.485-0.41c0.169-0.139,0.336-0.272,0.5-0.406l0.616,1.417
			c-0.165,0.164-0.382,0.35-0.655,0.56c-0.272,0.21-0.598,0.457-0.978,0.734c-0.421,0.308-0.78,0.533-1.078,0.683
			c-0.297,0.148-0.523,0.226-0.677,0.226c-0.934,0-1.54-0.108-1.817-0.323c-0.277-0.216-0.585-0.816-0.924-1.802
			c-0.041-0.082-0.103-0.18-0.185-0.293c-0.082-0.112-0.174-0.246-0.277-0.4c-0.123-0.235-0.231-0.415-0.323-0.533
			s-0.169-0.175-0.231-0.175c-0.164,0-0.385,0.107-0.662,0.328s-0.616,0.555-1.016,0.996c-0.052-0.134-0.116-0.293-0.193-0.478
			c-0.077-0.185-0.156-0.4-0.238-0.646c-0.021-0.062-0.046-0.118-0.077-0.169C185.254,308.443,185.218,308.402,185.177,308.371z
			 M191.613,296.222c0.257,0,0.444,0.052,0.562,0.154c0.118,0.103,0.177,0.252,0.177,0.446c-0.062,0.288-0.113,0.529-0.154,0.724
			c-0.103,0.37-0.193,0.673-0.27,0.909c-0.077,0.235-0.136,0.405-0.177,0.508c-0.092,0.226-0.218,0.421-0.377,0.591
			c-0.159,0.169-0.352,0.323-0.577,0.456c-0.236,0.165-0.434,0.277-0.593,0.345c-0.159,0.066-0.27,0.097-0.331,0.087
			c-0.175-0.021-0.341-0.041-0.5-0.057s-0.316-0.021-0.47-0.021c-0.133-0.072-0.239-0.211-0.316-0.416
			c-0.077-0.205-0.115-0.482-0.115-0.831c0-0.309,0.188-0.698,0.562-1.165c0.375-0.468,0.706-0.714,0.993-0.744
			c0.174-0.216,0.38-0.463,0.616-0.739c0.103-0.072,0.236-0.134,0.4-0.18C191.208,296.242,191.398,296.222,191.613,296.222z"/>
		<path fill="#CF2027" d="M193.985,308.371c0.041-0.071,0.095-0.153,0.162-0.241c0.067-0.087,0.146-0.189,0.239-0.312
			c0.103-0.082,0.236-0.2,0.4-0.354c0.164-0.154,0.349-0.334,0.554-0.539c0.185-0.205,0.411-0.462,0.678-0.765
			c0.267-0.303,0.59-0.667,0.97-1.099c0.165-0.175,0.37-0.4,0.616-0.672c0.246-0.272,0.539-0.596,0.877-0.976
			c0.288-0.339,0.596-0.59,0.924-0.755c0.328-0.164,0.677-0.246,1.047-0.246s0.642,0.113,0.816,0.344
			c0.175,0.231,0.262,0.57,0.262,1.012c0,0.235-0.087,0.688-0.262,1.354c-0.174,0.668-0.446,1.551-0.816,2.648
			c-0.092,0.206-0.18,0.4-0.262,0.586c-0.062,0.133-0.103,0.251-0.123,0.354s-0.031,0.18-0.031,0.231
			c0,0.062,0.036,0.139,0.107,0.23c0.051-0.03,0.1-0.071,0.146-0.123c0.046-0.051,0.1-0.112,0.162-0.185
			c0.082-0.154,0.208-0.318,0.377-0.487c0.169-0.17,0.372-0.354,0.608-0.56c0.093-0.175,0.213-0.35,0.362-0.519
			c0.149-0.17,0.316-0.323,0.5-0.467c0.041-0.042,0.095-0.108,0.162-0.2c0.067-0.093,0.146-0.19,0.239-0.293
			c0.134-0.134,0.292-0.272,0.478-0.416c0.185-0.144,0.4-0.292,0.646-0.446c0.277-0.144,0.526-0.257,0.747-0.339
			s0.413-0.123,0.578-0.123c0.318,0,0.6,0.077,0.847,0.23c0.247,0.154,0.457,0.396,0.631,0.725c0.205,0.636,0.4,1.227,0.585,1.771
			c0.113,0.318,0.239,0.554,0.377,0.708s0.295,0.231,0.47,0.231c0.133,0,0.254-0.026,0.362-0.077c0.108-0.052,0.208-0.129,0.3-0.231
			l0.616,1.417c-0.174,0.144-0.354,0.293-0.539,0.446c-0.185,0.154-0.365,0.303-0.539,0.447c-0.236,0.215-0.457,0.364-0.662,0.451
			c-0.206,0.087-0.411,0.134-0.616,0.134c-0.236,0-0.462-0.052-0.677-0.154c-0.216-0.103-0.4-0.257-0.555-0.462
			c-0.082-0.082-0.185-0.236-0.308-0.457c-0.124-0.221-0.267-0.492-0.431-0.821c-0.134-0.133-0.285-0.312-0.455-0.533
			s-0.367-0.478-0.593-0.775l-0.139-0.046c-0.195,0.062-0.387,0.153-0.577,0.276c-0.19,0.124-0.393,0.283-0.606,0.478
			c-0.462,0.411-0.795,0.668-1,0.771c-0.206,0.103-0.344,0.221-0.416,0.354c-0.144,0.247-0.39,0.565-0.736,0.955
			c-0.349,0.391-0.786,0.852-1.309,1.386c-0.133,0.134-0.267,0.262-0.4,0.391c-0.133,0.128-0.267,0.256-0.398,0.38
			c-0.133,0.112-0.285,0.189-0.454,0.235c-0.169,0.047-0.357,0.072-0.562,0.072c-0.411,0-0.634-0.144-0.67-0.426
			c-0.036-0.282-0.069-0.565-0.1-0.853c0.154-0.431,0.329-0.97,0.523-1.617c0.195-0.646,0.418-1.4,0.672-2.263
			c0-0.052,0.018-0.124,0.054-0.211c0.036-0.087,0.08-0.2,0.131-0.344c0.049-0.134,0.084-0.252,0.105-0.349
			c0.021-0.098,0.031-0.18,0.031-0.252s-0.026-0.128-0.077-0.169c-0.051-0.042-0.134-0.062-0.247-0.062
			c-0.103,0-0.239,0.062-0.408,0.185c-0.169,0.123-0.373,0.318-0.608,0.585c-0.288,0.308-0.519,0.549-0.693,0.724
			c-0.175,0.175-0.292,0.277-0.354,0.308c-0.103,0.072-0.223,0.175-0.362,0.309c-0.139,0.133-0.295,0.282-0.47,0.446
			c-0.021,0.041-0.051,0.103-0.092,0.185s-0.108,0.175-0.2,0.277c-0.041-0.154-0.113-0.344-0.215-0.569
			C194.283,308.992,194.149,308.71,193.985,308.371z"/>
		<path fill="#CF2027" d="M208.706,308.371c0.072-0.082,0.159-0.2,0.262-0.349c0.103-0.148,0.231-0.318,0.385-0.514
			c0.133-0.112,0.288-0.267,0.462-0.456c0.174-0.19,0.37-0.427,0.585-0.714c0.083-0.175,0.183-0.369,0.3-0.58
			c0.118-0.21,0.254-0.457,0.408-0.744c0.062-0.277,0.205-0.596,0.431-0.949c0.226-0.354,0.539-0.75,0.939-1.191
			c0.564-0.626,1.155-1.293,1.771-2.002c0.318-0.472,0.665-0.821,1.04-1.047s0.778-0.339,1.209-0.339
			c0.287,0,0.505,0.129,0.654,0.385c0.149,0.257,0.223,0.637,0.223,1.14c0,0.186-0.125,0.473-0.377,0.862
			c-0.251,0.391-0.634,0.888-1.147,1.494c-0.318,0.38-0.652,0.754-1.001,1.129s-0.693,0.76-1.032,1.149
			c-0.154,0.145-0.315,0.298-0.485,0.468c-0.169,0.169-0.352,0.359-0.547,0.564c-0.062,0.216-0.128,0.457-0.2,0.724
			c0,0.4,0.025,0.744,0.077,1.037c0.051,0.292,0.128,0.544,0.231,0.749c0.051,0.072,0.162,0.231,0.331,0.482
			c0.169,0.252,0.398,0.58,0.686,0.98c0.072,0.103,0.159,0.205,0.262,0.308c0.103,0.104,0.221,0.206,0.354,0.309
			c0.154-0.062,0.452-0.339,0.893-0.826c0.441-0.488,1.037-1.176,1.786-2.069l0.585,1.417c-0.072,0.082-0.208,0.246-0.408,0.498
			c-0.2,0.251-0.444,0.585-0.731,0.996c-0.329,0.431-0.662,0.893-1.001,1.386c0,0.103,0.049,0.221,0.146,0.354
			c0.098,0.134,0.218,0.282,0.362,0.447c0.267,0.308,0.495,0.708,0.685,1.2c0.19,0.493,0.336,1.094,0.439,1.802
			c-0.01,0.052-0.023,0.134-0.039,0.247c-0.015,0.112-0.028,0.241-0.039,0.385c-0.123,1.181-0.849,2.361-2.179,3.541
			c-1.33,1.182-2.584,1.771-3.765,1.771c-0.544,0-0.978-0.072-1.301-0.211c-0.324-0.139-0.552-0.344-0.686-0.621
			c-0.051-0.133-0.092-0.395-0.123-0.785c-0.031-0.39-0.046-0.908-0.046-1.555c0-0.062,0.028-0.186,0.085-0.365
			c0.056-0.18,0.151-0.42,0.285-0.729c0.072-0.205,0.172-0.421,0.3-0.642s0.265-0.457,0.408-0.714
			c0.144-0.215,0.29-0.426,0.439-0.631s0.29-0.41,0.423-0.616c0.329-0.359,0.621-0.677,0.877-0.954
			c0.195-0.195,0.347-0.38,0.455-0.555c0.107-0.175,0.162-0.328,0.162-0.462c-0.349-0.482-0.698-0.944-1.047-1.386
			c-0.369-0.462-0.669-0.924-0.9-1.386s-0.383-0.935-0.455-1.417c-0.01-0.062-0.051-0.159-0.123-0.293
			c-0.236,0.227-0.467,0.457-0.693,0.693c-0.041-0.154-0.113-0.344-0.216-0.569C209.003,308.992,208.87,308.71,208.706,308.371z
			 M213.756,314.839c-0.062,0-0.203,0.144-0.423,0.432c-0.221,0.287-0.521,0.713-0.901,1.277c-0.215,0.339-0.431,0.683-0.646,1.032
			c-0.216,0.349-0.441,0.692-0.678,1.031c-0.082,0.113-0.2,0.38-0.354,0.801c-0.154,0.421-0.231,0.688-0.231,0.801
			c0,0.195,0.054,0.339,0.162,0.431c0.108,0.093,0.274,0.139,0.5,0.139c0.791,0,1.601-0.431,2.433-1.288
			c0.832-0.856,1.248-1.679,1.248-2.469c0-0.164-0.031-0.359-0.092-0.58s-0.144-0.462-0.247-0.729
			c-0.133-0.298-0.262-0.519-0.385-0.662C214.018,314.911,213.89,314.839,213.756,314.839z"/>
		<path fill="#CF2027" d="M222.21,311.944c0,0.144-0.039,0.282-0.116,0.415c-0.077,0.134-0.192,0.262-0.346,0.386
			c-0.052,0.153-0.116,0.267-0.193,0.344c-0.077,0.076-0.177,0.118-0.3,0.118c-0.421,0-0.78-0.149-1.078-0.447
			s-0.534-0.739-0.708-1.324l0.108-0.107l-0.154-0.4c0.051-0.164,0.097-0.323,0.138-0.478s0.083-0.308,0.124-0.462
			c0.051-0.195,0.136-0.339,0.254-0.426c0.118-0.088,0.254-0.129,0.408-0.129c0.267,0,0.516,0.072,0.747,0.216
			s0.439,0.364,0.624,0.662c0.175,0.268,0.3,0.534,0.377,0.806C222.172,311.39,222.21,311.667,222.21,311.944z"/>
		<path fill="#CF2027" d="M237.932,304.316c0,0.205,0.146,0.478,0.439,0.821s0.731,0.77,1.316,1.273
			c0.38,0.318,0.772,0.626,1.178,0.929c0.405,0.303,0.808,0.61,1.208,0.919c0.175,0.144,0.4,0.333,0.678,0.564
			c0.277,0.23,0.601,0.498,0.97,0.806c0.267,0.205,0.546,0.411,0.839,0.616c0.293,0.205,0.608,0.41,0.947,0.615
			c0.226,0.175,0.477,0.365,0.754,0.57s0.595,0.426,0.955,0.662c0.206,0.123,0.365,0.349,0.478,0.672
			c0.113,0.324,0.18,0.745,0.2,1.258l-0.139,0.4l-0.154,0.077c-0.103,0-0.239-0.046-0.408-0.134
			c-0.169-0.087-0.382-0.21-0.639-0.374c-0.051-0.031-0.285-0.144-0.701-0.344c-0.416-0.195-1.014-0.473-1.794-0.832
			c-0.431-0.185-0.826-0.39-1.186-0.621c-0.359-0.23-0.688-0.478-0.985-0.733c-0.175-0.154-0.398-0.324-0.67-0.509
			s-0.593-0.385-0.962-0.601c-0.38-0.215-0.708-0.421-0.985-0.615c-0.277-0.195-0.498-0.359-0.662-0.493
			c-0.555-0.452-1.006-0.796-1.355-1.032c-0.349-0.235-0.59-0.354-0.724-0.354c-0.103,0.144-0.159,0.292-0.169,0.446
			c-0.123,0.482-0.254,1.088-0.393,1.822c-0.139,0.739-0.29,1.591-0.454,2.571c0,0.175-0.031,0.303-0.092,0.391
			c-0.062,0.087-0.154,0.133-0.277,0.133c-0.4,0-0.703-0.098-0.909-0.292c-0.205-0.195-0.308-0.488-0.308-0.883
			c0-0.523,0.033-1.073,0.1-1.647c0.066-0.575,0.177-1.181,0.331-1.817c0.051-0.277,0.09-0.528,0.115-0.749
			c0.026-0.221,0.039-0.422,0.039-0.606c0-0.478-0.203-0.883-0.608-1.222c-0.405-0.338-0.608-0.58-0.608-0.724
			c0-0.226,0.033-0.421,0.1-0.59c0.066-0.17,0.167-0.308,0.3-0.411c0.338-0.215,0.652-0.421,0.939-0.615
			c0.072-0.041,0.121-0.108,0.146-0.206c0.025-0.097,0.039-0.235,0.039-0.41c0-0.103,0-0.211,0-0.329c0-0.117,0-0.23,0-0.333
			c0.031-0.909,0.056-1.858,0.077-2.844c0-0.072,0-0.185,0-0.339s-0.01-0.354-0.031-0.601c-0.021-0.185-0.025-0.359-0.015-0.519
			s0.015-0.303,0.015-0.436c-0.062-0.206-0.115-0.386-0.162-0.529c-0.046-0.148-0.069-0.292-0.069-0.426
			c0-0.123,0.01-0.313,0.031-0.575s0.031-0.451,0.031-0.564c0-0.144-0.013-0.344-0.038-0.601c-0.026-0.257-0.039-0.451-0.039-0.585
			c0-0.37,0.084-0.724,0.254-1.062s0.429-0.667,0.778-0.996c0.338-0.287,0.685-0.508,1.039-0.657
			c0.354-0.148,0.716-0.221,1.086-0.221c0.174,0,0.434,0.011,0.777,0.036c0.344,0.026,0.613,0.041,0.809,0.041
			c0.133,0,0.498,0.113,1.093,0.339c0.236,0.021,0.447,0.047,0.631,0.082c0.185,0.036,0.333,0.077,0.447,0.118
			c0.256,0.123,0.457,0.216,0.6,0.282c0.144,0.067,0.247,0.108,0.308,0.118c0.175,0.062,0.326,0.113,0.454,0.154
			c0.128,0.041,0.234,0.093,0.316,0.153c0.133,0.062,0.29,0.134,0.47,0.211c0.18,0.087,0.382,0.18,0.608,0.277
			c0.37,0.185,0.716,0.4,1.04,0.646s0.629,0.514,0.917,0.801c0.328,0.369,0.575,0.734,0.739,1.088
			c0.165,0.354,0.247,0.703,0.247,1.053c0,0.103-0.008,0.251-0.023,0.441c-0.016,0.189-0.044,0.4-0.085,0.637
			c-0.031,0.297-0.185,0.621-0.462,0.965s-0.678,0.719-1.201,1.129c-0.462,0.359-0.893,0.657-1.293,0.898s-0.77,0.416-1.108,0.519
			c-0.134,0.092-0.236,0.18-0.308,0.262c-0.103,0.103-0.318,0.246-0.647,0.431c-0.328,0.186-0.775,0.416-1.339,0.693
			c-1.027,0.503-1.755,0.831-2.187,0.99S237.932,304.132,237.932,304.316z M236.315,296.895c0.195-0.144,0.38-0.282,0.554-0.421
			s0.4-0.211,0.678-0.211c0.123,0,0.274,0.139,0.454,0.411s0.27,0.472,0.27,0.605c0,0.072-0.026,0.236-0.077,0.493
			c-0.051,0.256-0.133,0.605-0.246,1.047c-0.236,0.996-0.37,1.617-0.4,1.868c-0.031,0.252-0.098,0.646-0.2,1.181
			c-0.041,0.134-0.083,0.308-0.124,0.523c0,0.093,0.018,0.159,0.054,0.2c0.036,0.041,0.084,0.062,0.146,0.062
			c2.043-1.026,3.101-1.561,3.172-1.602c0.082-0.021,0.169-0.051,0.262-0.087s0.18-0.072,0.262-0.113l0.231-0.292
			c0.595-0.38,1.211-0.785,1.848-1.217c0.4-0.308,0.698-0.61,0.893-0.908c0.195-0.298,0.293-0.596,0.293-0.894
			c0-0.38-0.221-0.755-0.662-1.124s-1.104-0.724-1.987-1.062c-0.749-0.293-1.432-0.514-2.048-0.651
			c-0.616-0.139-1.175-0.206-1.678-0.206c-0.657,0-1.152,0.113-1.486,0.344c-0.333,0.231-0.5,0.575-0.5,1.021
			c0,0.35,0.025,0.616,0.077,0.796S236.223,296.915,236.315,296.895z"/>
		<path fill="#CF2027" d="M246.602,308.371c0.123-0.215,0.282-0.436,0.478-0.656c0.195-0.221,0.441-0.447,0.739-0.683
			c0.031-0.206,0.062-0.411,0.092-0.611c0.031-0.2,0.052-0.4,0.062-0.605c0.031-0.144,0.08-0.313,0.146-0.508
			c0.067-0.195,0.141-0.406,0.223-0.632c0.093-0.226,0.218-0.508,0.377-0.847s0.367-0.719,0.624-1.14
			c0.216-0.236,0.441-0.498,0.678-0.78s0.472-0.564,0.708-0.852c0.113-0.093,0.236-0.18,0.369-0.262
			c0.134-0.083,0.267-0.175,0.4-0.277c0.124-0.041,0.262-0.077,0.416-0.108c0.154-0.03,0.323-0.046,0.508-0.046
			c0.256,0,0.464,0.025,0.624,0.077c0.159,0.051,0.29,0.139,0.393,0.262c0.072,0.082,0.141,0.205,0.208,0.369
			c0.066,0.165,0.131,0.364,0.192,0.601c0.031,0.205,0.067,0.432,0.108,0.678c0-0.062-0.018-0.036-0.054,0.077
			c-0.036,0.112-0.09,0.292-0.162,0.539l-0.139,0.492c-0.144,0.493-0.467,1.062-0.97,1.71c-0.503,0.646-1.181,1.386-2.033,2.217
			c-0.072,0.072-0.134,0.159-0.185,0.268c-0.051,0.107-0.077,0.226-0.077,0.349c0,0.216,0.039,0.405,0.115,0.569
			c0.077,0.165,0.188,0.288,0.331,0.37c0.082,0.062,0.213,0.123,0.393,0.185s0.393,0.118,0.639,0.17
			c0.4-0.031,0.765-0.098,1.093-0.201c0.329-0.103,0.621-0.226,0.878-0.369c0.051-0.031,0.133-0.077,0.246-0.134
			c0.113-0.056,0.226-0.128,0.339-0.221c0.133,0.298,0.251,0.565,0.354,0.801c0.103,0.236,0.185,0.441,0.247,0.616
			c-0.585,0.575-1.116,1.006-1.594,1.299c-0.478,0.292-0.916,0.441-1.316,0.441c-0.165,0.103-0.352,0.174-0.562,0.221
			c-0.21,0.046-0.459,0.072-0.747,0.072c-0.38,0-0.716-0.057-1.008-0.17c-0.293-0.113-0.537-0.277-0.731-0.493
			c-0.103-0.103-0.206-0.256-0.308-0.456s-0.21-0.437-0.323-0.714c-0.093-0.226-0.18-0.396-0.262-0.503
			c-0.082-0.107-0.174-0.159-0.277-0.159c-0.082,0-0.175,0.036-0.277,0.113s-0.215,0.194-0.339,0.349
			c-0.041-0.154-0.113-0.344-0.215-0.569C246.899,308.992,246.766,308.71,246.602,308.371z M251.529,303.367
			c-0.226,0-0.528,0.292-0.908,0.883c-0.38,0.59-0.57,1.026-0.57,1.304c0,0.062,0.013,0.103,0.039,0.128
			c0.025,0.026,0.08,0.041,0.162,0.041c0.113,0,0.205-0.062,0.277-0.18c0.072-0.118,0.138-0.226,0.2-0.328
			c0.113-0.103,0.223-0.216,0.331-0.334c0.107-0.118,0.213-0.23,0.315-0.344c0.123-0.144,0.216-0.287,0.277-0.431
			c0.062-0.145,0.092-0.288,0.092-0.432c0-0.092-0.018-0.169-0.054-0.226C251.655,303.393,251.601,303.367,251.529,303.367z"/>
		<path fill="#CF2027" d="M254.347,308.371l0.138-0.123c0.01-0.112,0.083-0.246,0.216-0.4c0.133-0.153,0.323-0.333,0.57-0.539
			c0.154-0.112,0.315-0.221,0.485-0.323s0.331-0.215,0.485-0.339c0.646-0.554,1.273-1.088,1.878-1.601
			c0.349-0.309,0.698-0.575,1.047-0.796c0.349-0.221,0.678-0.396,0.986-0.529c0.215-0.276,0.618-0.56,1.208-0.847
			s1.07-0.431,1.44-0.431c0.144,0,0.259,0.041,0.347,0.123c0.087,0.082,0.141,0.185,0.162,0.308v0.847
			c0,0.298-0.085,0.56-0.254,0.791c-0.169,0.23-0.423,0.446-0.762,0.642c-0.226,0.103-0.452,0.216-0.677,0.339
			c-0.226,0.123-0.452,0.235-0.678,0.339c-0.082,0.103-0.3,0.292-0.654,0.574c-0.354,0.282-0.834,0.662-1.44,1.135
			c-0.277,0.216-0.508,0.405-0.693,0.575c-0.185,0.169-0.313,0.308-0.385,0.41c-0.103,0.195-0.183,0.411-0.239,0.646
			c-0.057,0.236-0.085,0.509-0.085,0.816c0,0.236,0.036,0.437,0.108,0.605c0.072,0.17,0.18,0.309,0.323,0.411
			c0.103,0.071,0.244,0.144,0.424,0.215c0.18,0.072,0.403,0.145,0.669,0.216c0.154-0.062,0.357-0.123,0.608-0.18
			c0.251-0.056,0.531-0.128,0.839-0.221c0.349-0.205,0.706-0.421,1.07-0.646c0.364-0.226,0.726-0.457,1.085-0.692
			c0.051-0.031,0.115-0.067,0.192-0.104c0.077-0.035,0.157-0.087,0.239-0.159c0.103-0.133,0.244-0.287,0.423-0.462
			c0.18-0.174,0.398-0.374,0.654-0.601c0.411,0.894,0.616,1.366,0.616,1.417c-0.38,0.308-0.765,0.621-1.155,0.944
			s-0.837,0.591-1.34,0.796c-0.164,0.133-0.303,0.257-0.416,0.369c-0.514,0.514-1.111,0.898-1.794,1.16s-1.46,0.396-2.333,0.396
			c-0.195,0-0.37-0.016-0.523-0.046c-0.154-0.031-0.282-0.072-0.385-0.124c-0.308-0.205-0.57-0.385-0.785-0.538
			c-0.226-0.165-0.416-0.324-0.57-0.473s-0.267-0.287-0.339-0.421c-0.092-0.144-0.156-0.318-0.192-0.523s-0.054-0.457-0.054-0.755
			c0-0.082,0.025-0.215,0.077-0.4c0.051-0.185,0.077-0.312,0.077-0.385c-0.072-0.226-0.159-0.457-0.262-0.693
			C254.599,308.859,254.48,308.618,254.347,308.371z"/>
		<path fill="#CF2027" d="M264.063,308.371c0.072-0.071,0.146-0.169,0.223-0.287c0.077-0.118,0.167-0.246,0.27-0.39l1.186-0.816
			c0.144-0.175,0.365-0.4,0.662-0.673c0.298-0.271,0.667-0.601,1.109-0.99c0.051-0.113,0.136-0.246,0.254-0.396
			c0.118-0.148,0.259-0.292,0.424-0.436c0.144-0.134,0.287-0.263,0.431-0.381c0.144-0.117,0.277-0.23,0.4-0.344
			c0.154-0.153,0.3-0.308,0.438-0.462c0.139-0.153,0.28-0.303,0.424-0.446c0.164-0.144,0.333-0.257,0.508-0.339
			c0.175-0.082,0.365-0.123,0.57-0.123c0.226,0,0.398,0.025,0.516,0.082c0.118,0.057,0.182,0.139,0.192,0.241
			c-0.103,0.236-0.21,0.473-0.323,0.709l0.092,0.138c0.452-0.174,0.806-0.303,1.062-0.385c0.256-0.082,0.421-0.123,0.493-0.123
			c0.75,0,1.312,0.226,1.686,0.683s0.562,1.149,0.562,2.074c0,0.174-0.021,0.379-0.062,0.615s-0.108,0.493-0.2,0.771
			c-0.103,0.308-0.213,0.564-0.331,0.77s-0.229,0.354-0.331,0.446c0.041,0.134,0.087,0.227,0.139,0.282
			c0.051,0.057,0.118,0.088,0.2,0.088s0.167-0.026,0.254-0.077c0.087-0.052,0.192-0.129,0.316-0.231
			c0.103,0.227,0.203,0.457,0.3,0.698c0.097,0.241,0.197,0.482,0.3,0.719c-0.185,0.164-0.365,0.323-0.539,0.478
			c-0.175,0.153-0.359,0.303-0.554,0.446c-0.236,0.195-0.459,0.334-0.67,0.421s-0.418,0.134-0.624,0.134
			c-0.236,0-0.431-0.057-0.585-0.17c-0.154-0.112-0.277-0.271-0.37-0.477c-0.256,0.338-0.567,0.646-0.932,0.929
			c-0.364,0.282-0.767,0.519-1.208,0.703c-0.257,0.123-0.49,0.216-0.701,0.282s-0.403,0.103-0.578,0.103
			c-0.051,0-0.151,0.021-0.3,0.062s-0.27,0.062-0.362,0.062c-0.585,0-1.114-0.246-1.586-0.739c-0.472-0.492-0.708-1.041-0.708-1.647
			c0-0.246,0.057-0.575,0.169-0.98s0.169-0.642,0.169-0.713c0-0.072-0.023-0.134-0.069-0.18c-0.046-0.046-0.11-0.067-0.192-0.067
			c-0.051,0-0.174,0.077-0.37,0.231c-0.195,0.154-0.472,0.375-0.832,0.662c-0.031,0.041-0.067,0.103-0.108,0.185
			s-0.107,0.175-0.2,0.277c-0.082-0.236-0.174-0.478-0.277-0.719C264.299,308.828,264.187,308.598,264.063,308.371z M271.47,305.554
			c-0.051,0.01-0.126,0.062-0.223,0.159c-0.098,0.098-0.193,0.221-0.285,0.364c-0.144,0.236-0.308,0.492-0.493,0.77
			c-0.113,0.123-0.233,0.216-0.362,0.282c-0.128,0.067-0.275,0.118-0.439,0.149c-0.103,0.01-0.21,0.107-0.323,0.298
			c-0.113,0.189-0.226,0.467-0.339,0.826c-0.113,0.318-0.195,0.59-0.247,0.816c-0.051,0.226-0.077,0.415-0.077,0.569
			c0,0.287,0.072,0.503,0.215,0.646c0.144,0.145,0.365,0.216,0.662,0.216c0.472,0,0.906-0.134,1.301-0.396
			c0.396-0.262,0.768-0.651,1.116-1.175c0.165-0.195,0.318-0.38,0.462-0.555c0.082-0.062,0.148-0.164,0.2-0.303
			c0.051-0.139,0.103-0.308,0.154-0.514l0.277-0.877c-0.093-0.309-0.18-0.555-0.262-0.734c-0.083-0.18-0.165-0.287-0.247-0.328
			c-0.051-0.031-0.165-0.067-0.339-0.103C272.05,305.631,271.799,305.595,271.47,305.554z"/>
		<path fill="#CF2027" d="M275.197,308.371c0.164-0.215,0.328-0.441,0.493-0.677c0.75-0.616,1.363-1.212,1.84-1.781
			c0.478-0.57,0.824-1.099,1.04-1.592l-0.154-0.738c0.133-0.257,0.464-0.56,0.993-0.909c0.529-0.349,0.957-0.523,1.286-0.523
			c0.349,0,0.644,0.103,0.885,0.308c0.241,0.206,0.475,0.421,0.701,0.647c0.113,0.071,0.195,0.128,0.247,0.169
			c0.411,0.309,0.718,0.734,0.924,1.278c0.205,0.544,0.308,1.206,0.308,1.986c0,0.411-0.159,0.996-0.478,1.761
			s-0.478,1.345-0.478,1.734c0,0.052,0.018,0.093,0.054,0.123c0.036,0.031,0.084,0.047,0.146,0.047c0.134,0,0.293-0.062,0.478-0.18
			s0.385-0.277,0.601-0.482c0.544-0.534,0.873-0.832,0.985-0.889c0.113-0.056,0.251-0.148,0.416-0.282
			c0.082,0.206,0.18,0.427,0.292,0.662c0.113,0.236,0.221,0.488,0.323,0.755c-0.092,0.082-0.198,0.18-0.315,0.293
			c-0.118,0.112-0.259,0.241-0.424,0.385c-0.349,0.257-0.803,0.564-1.363,0.929c-0.559,0.364-1.229,0.785-2.009,1.258
			c-0.205,0.134-0.441,0.241-0.708,0.323c-0.431,0-0.754-0.066-0.97-0.195c-0.216-0.128-0.324-0.333-0.324-0.621
			c0-0.112,0.023-0.246,0.069-0.395c0.046-0.149,0.11-0.309,0.192-0.482c0.062-0.134,0.128-0.272,0.2-0.411
			c0.072-0.139,0.134-0.277,0.185-0.421c0.226-0.646,0.398-1.247,0.516-1.802c0.118-0.554,0.177-1.052,0.177-1.493
			c0-0.544-0.084-0.96-0.254-1.248c-0.169-0.287-0.424-0.451-0.762-0.492c-0.226,0.123-0.473,0.298-0.739,0.523
			c-0.267,0.226-0.539,0.508-0.816,0.847c-0.297,0.37-0.564,0.673-0.8,0.909c-0.236,0.235-0.431,0.395-0.585,0.477
			c-0.092,0.154-0.241,0.329-0.446,0.523c-0.206,0.195-0.478,0.406-0.816,0.632c-0.021,0.041-0.051,0.103-0.092,0.185
			s-0.108,0.175-0.2,0.277c-0.082-0.236-0.174-0.473-0.277-0.703C275.433,308.854,275.32,308.618,275.197,308.371z"/>
		<path fill="#CF2027" d="M285.467,308.371l0.092-0.107l0.046-0.154c0.185-0.226,0.344-0.405,0.478-0.533
			c0.133-0.129,0.236-0.227,0.308-0.298c0.052-0.052,0.165-0.118,0.339-0.2c0.175-0.082,0.411-0.185,0.708-0.308l0.2-0.124
			c0.072-0.112,0.2-0.276,0.385-0.492c0.185-0.216,0.406-0.462,0.662-0.739c0.051-0.062,0.128-0.129,0.231-0.2
			c0.103-0.072,0.21-0.164,0.324-0.277c0.246-0.236,0.493-0.482,0.739-0.733c0.247-0.252,0.478-0.498,0.693-0.745
			c0.093-0.092,0.283-0.262,0.57-0.503c0.288-0.241,0.678-0.574,1.17-1.006c0.072-0.051,0.2-0.128,0.385-0.226
			c0.185-0.098,0.426-0.211,0.724-0.344c0.133-0.062,0.233-0.165,0.3-0.303c0.066-0.139,0.1-0.313,0.1-0.529
			c0.082-0.134,0.162-0.298,0.238-0.487c0.077-0.19,0.151-0.411,0.224-0.667c0.103-0.318,0.182-0.58,0.238-0.78
			c0.057-0.2,0.1-0.334,0.131-0.406c0.175-0.462,0.411-1.006,0.708-1.627c0.298-0.621,0.652-1.329,1.062-2.13
			c0.206-0.421,0.447-0.888,0.724-1.401c0.175-0.257,0.37-0.451,0.585-0.58c0.215-0.128,0.441-0.189,0.677-0.189
			c0.185,0,0.321,0.071,0.408,0.215c0.087,0.145,0.131,0.354,0.131,0.632c0,0.441-0.031,0.862-0.092,1.263s-0.175,0.775-0.339,1.124
			c-0.031,0.072-0.057,0.18-0.077,0.323s-0.041,0.318-0.062,0.523c-0.01,0.145-0.049,0.282-0.115,0.416
			c-0.067,0.134-0.151,0.257-0.254,0.369c0,0.072-0.01,0.154-0.031,0.252s-0.041,0.216-0.062,0.349l-0.215,0.277
			c-0.021,0.062-0.031,0.134-0.031,0.221c0,0.088,0,0.18,0,0.272c0,0.062-0.036,0.18-0.108,0.359s-0.18,0.436-0.323,0.765
			c-0.165,0.349-0.295,0.626-0.393,0.831c-0.097,0.206-0.151,0.334-0.162,0.385c-0.041,0.052-0.095,0.134-0.162,0.247
			c-0.066,0.112-0.146,0.241-0.239,0.385l0.046,0.339l-0.985,3.542c0,0.39,0.005,0.724,0.015,1.001
			c0.01,0.276,0.041,0.497,0.092,0.662c0.052,0.174,0.136,0.385,0.254,0.636c0.118,0.252,0.27,0.523,0.454,0.812
			c0.113,0.195,0.247,0.333,0.4,0.421c0.154,0.087,0.318,0.133,0.493,0.133c0.195,0,0.393-0.056,0.593-0.164
			c0.2-0.107,0.403-0.271,0.608-0.498c0.123,0.268,0.239,0.519,0.347,0.755c0.107,0.236,0.197,0.457,0.269,0.662
			c-0.051,0.031-0.162,0.134-0.331,0.313s-0.393,0.436-0.669,0.765c-0.165,0.195-0.367,0.334-0.608,0.421s-0.537,0.134-0.885,0.134
			c-0.77,0-1.396-0.201-1.879-0.602s-0.821-1-1.016-1.801c-0.041-0.164-0.077-0.309-0.108-0.432s-0.062-0.236-0.092-0.339
			c-0.072-0.194-0.195-0.405-0.37-0.631c-0.072,0.103-0.128,0.18-0.169,0.23c-0.123,0.082-0.259,0.2-0.408,0.354
			c-0.148,0.154-0.3,0.349-0.454,0.585c-0.031,0.103-0.087,0.226-0.169,0.375c-0.082,0.148-0.195,0.328-0.339,0.534
			c-0.328,0.379-0.662,0.759-1,1.145c-0.339,0.385-0.678,0.765-1.017,1.134c-0.462,0.514-0.888,0.888-1.278,1.13
			c-0.39,0.24-0.729,0.364-1.017,0.364c-0.513,0-0.893-0.124-1.139-0.364c-0.247-0.242-0.37-0.616-0.37-1.13
			c0-0.236,0.087-0.569,0.262-0.995c0.174-0.427,0.262-0.739,0.262-0.945l-0.092-0.246L285.467,308.371z M293.213,303.968
			c0-0.052-0.021-0.129-0.062-0.231c-0.154,0.154-0.344,0.334-0.57,0.539c-0.226,0.205-0.493,0.432-0.801,0.678
			c-0.072,0.164-0.236,0.421-0.493,0.774c-0.257,0.354-0.616,0.796-1.078,1.319c-0.133,0.154-0.313,0.416-0.539,0.791
			c-0.226,0.374-0.503,0.837-0.832,1.381c-0.113,0.215-0.231,0.478-0.354,0.785c0,0.062,0.041,0.128,0.124,0.2
			c0.308-0.093,0.685-0.364,1.132-0.812c0.446-0.446,0.978-1.062,1.594-1.853c0.636-0.842,1.108-1.561,1.417-2.15
			C293.059,304.799,293.213,304.327,293.213,303.968z"/>
		<path fill="#CF2027" d="M303.376,311.944c0,0.144-0.039,0.282-0.116,0.415c-0.077,0.134-0.192,0.262-0.346,0.386
			c-0.051,0.153-0.116,0.267-0.193,0.344c-0.077,0.076-0.177,0.118-0.3,0.118c-0.421,0-0.78-0.149-1.078-0.447
			s-0.534-0.739-0.708-1.324l0.108-0.107l-0.154-0.4c0.051-0.164,0.097-0.323,0.139-0.478c0.041-0.154,0.082-0.308,0.123-0.462
			c0.051-0.195,0.136-0.339,0.254-0.426c0.118-0.088,0.254-0.129,0.408-0.129c0.267,0,0.516,0.072,0.747,0.216
			s0.439,0.364,0.624,0.662c0.174,0.268,0.3,0.534,0.377,0.806C303.337,311.39,303.376,311.667,303.376,311.944z"/>
		<path fill="#CF2027" d="M326.659,308.371l0.585,1.417c-0.113,0.103-0.249,0.211-0.408,0.328c-0.159,0.118-0.346,0.247-0.562,0.38
			c-0.215,0.072-0.475,0.175-0.778,0.309c-0.303,0.133-0.649,0.287-1.039,0.462c-0.298,0.185-0.542,0.323-0.731,0.416
			c-0.19,0.092-0.321,0.139-0.393,0.139c-0.134,0-0.377,0.056-0.731,0.169c-0.354,0.112-0.819,0.282-1.394,0.508
			c-0.308,0.113-0.634,0.226-0.978,0.344s-0.701,0.227-1.07,0.318l-0.955-0.2l-0.585,0.262c-0.195,0-0.393-0.005-0.593-0.01
			s-0.393-0.016-0.578-0.036c-0.298-0.011-0.521-0.052-0.67-0.123c-0.149-0.072-0.223-0.175-0.223-0.308l0.092-0.586l-0.092-0.107
			c-0.349,0-0.583-0.046-0.701-0.139c-0.118-0.092-0.177-0.308-0.177-0.646c0-0.154,0.008-0.411,0.023-0.771
			c0.015-0.358,0.038-0.826,0.069-1.401c0-0.051,0.033-0.158,0.1-0.323c0.066-0.164,0.1-0.282,0.1-0.354
			c-0.052-0.103-0.083-0.185-0.093-0.247c-0.01-0.062-0.015-0.117-0.015-0.169c0.021-0.4,0.064-0.894,0.131-1.479
			s0.151-1.278,0.254-2.079c0.123-0.482,0.226-1.026,0.308-1.632c-0.021-0.451-0.041-0.913-0.062-1.386
			c0.38-1.704,0.77-3.418,1.17-5.144c0.062-0.308,0.177-0.601,0.347-0.877c0.169-0.277,0.372-0.544,0.608-0.801
			c0.103-0.072,0.169-0.129,0.2-0.17c0.051-0.092,0.118-0.21,0.2-0.349s0.18-0.293,0.292-0.467c0.062-0.041,0.162-0.104,0.3-0.186
			s0.326-0.194,0.562-0.338c0.103-0.083,0.221-0.18,0.354-0.293c0.134-0.113,0.288-0.246,0.462-0.4
			c0.39-0.236,0.752-0.488,1.086-0.75c0.333-0.262,0.752-0.42,1.255-0.482c0.236-0.01,0.472-0.025,0.708-0.041
			c0.236-0.015,0.462-0.03,0.678-0.051c0.206-0.041,0.385-0.066,0.539-0.077c0.103-0.021,0.192-0.041,0.27-0.062
			c0.077-0.021,0.146-0.031,0.208-0.031c0.062,0,0.146,0.006,0.254,0.021c0.108,0.016,0.254,0.042,0.439,0.072
			c0.144,0.011,0.267,0.016,0.369,0.016c0.103,0,0.2-0.005,0.293-0.016c0.411,0.123,0.713,0.303,0.908,0.539
			c0.195,0.236,0.292,0.519,0.292,0.847c0,0.709-0.069,1.232-0.208,1.576s-0.357,0.519-0.655,0.519c-0.226,0-0.482-0.118-0.77-0.35
			c-0.288-0.23-1.062-0.344-2.325-0.344c-0.524,0.103-1.042,0.205-1.556,0.308c-0.051,0.082-0.11,0.145-0.177,0.186
			c-0.067,0.041-0.126,0.071-0.177,0.092l-0.539-0.2c-0.164,0.062-0.349,0.231-0.554,0.509c-0.205,0.276-0.421,0.656-0.646,1.139
			c-0.052,0.104-0.09,0.231-0.116,0.386c-0.026,0.153-0.039,0.333-0.039,0.538c-0.185,0.739-0.37,1.453-0.554,2.141
			c-0.174,0.739-0.316,1.299-0.423,1.679c-0.108,0.38-0.172,0.61-0.192,0.692c-0.031,0.104-0.057,0.201-0.077,0.293
			c-0.021,0.093-0.031,0.185-0.031,0.277c0,0.134,0.025,0.236,0.077,0.308c0.052,0.072,0.128,0.108,0.231,0.108
			c0.093,0,0.316-0.17,0.67-0.509c0.354-0.339,0.619-0.528,0.793-0.569c0.216-0.062,0.434-0.129,0.655-0.2
			c0.221-0.072,0.449-0.159,0.685-0.262c0.092-0.031,0.336-0.072,0.731-0.123c0.395-0.052,0.947-0.113,1.655-0.185l0.431,0.123
			l0.816-0.154l0.431,0.2c0.103,0.103,0.197,0.226,0.285,0.375c0.087,0.148,0.167,0.312,0.239,0.487c0,0.616-0.067,1.083-0.2,1.401
			s-0.333,0.478-0.601,0.478l-0.847-0.339c-0.698,0.071-1.388,0.139-2.071,0.205s-1.378,0.134-2.086,0.195
			c-0.862,0.175-1.524,0.456-1.986,0.847c-0.462,0.391-0.719,0.903-0.77,1.54c-0.01,0.134-0.046,0.339-0.108,0.616
			c-0.062,0.276-0.133,0.621-0.216,1.031l0.108,0.462c-0.092,0.441-0.164,0.857-0.215,1.247c-0.051,0.391-0.077,0.739-0.077,1.047
			c0,0.104,0.016,0.175,0.046,0.221c0.031,0.047,0.066,0.062,0.107,0.041c0.493-0.041,0.888-0.071,1.186-0.092
			c0.297-0.021,0.508-0.025,0.631-0.016c0.267,0.021,0.539,0.041,0.816,0.062l0.97-0.077c0.103-0.021,0.326-0.103,0.67-0.246
			c0.344-0.144,0.654-0.216,0.932-0.216c0.297,0,0.598-0.03,0.9-0.092c0.303-0.062,0.593-0.144,0.87-0.247
			c0.277-0.103,0.552-0.21,0.824-0.317c0.272-0.108,0.547-0.211,0.824-0.313c0.103-0.031,0.238-0.087,0.408-0.17
			C326.235,308.612,326.433,308.505,326.659,308.371z"/>
		<path fill="#CF2027" d="M326.566,308.371c0.041-0.071,0.095-0.153,0.162-0.241c0.067-0.087,0.146-0.189,0.239-0.312
			c0.103-0.082,0.236-0.2,0.4-0.354s0.349-0.334,0.554-0.539c0.185-0.205,0.411-0.462,0.678-0.765s0.59-0.667,0.97-1.099
			c0.164-0.175,0.37-0.4,0.616-0.672c0.247-0.272,0.539-0.596,0.878-0.976c0.288-0.339,0.595-0.59,0.924-0.755
			c0.329-0.164,0.678-0.246,1.047-0.246c0.37,0,0.642,0.113,0.816,0.344c0.174,0.231,0.262,0.57,0.262,1.012
			c0,0.235-0.087,0.688-0.262,1.354c-0.175,0.668-0.447,1.551-0.816,2.648c-0.092,0.206-0.179,0.4-0.262,0.586
			c-0.062,0.133-0.103,0.251-0.123,0.354s-0.031,0.18-0.031,0.231c0,0.062,0.036,0.139,0.108,0.23c0.051-0.03,0.1-0.071,0.146-0.123
			c0.046-0.051,0.1-0.112,0.162-0.185c0.083-0.154,0.208-0.318,0.377-0.487c0.169-0.17,0.372-0.354,0.608-0.56
			c0.092-0.175,0.213-0.35,0.362-0.519c0.149-0.17,0.315-0.323,0.5-0.467c0.041-0.042,0.095-0.108,0.162-0.2
			c0.067-0.093,0.146-0.19,0.239-0.293c0.133-0.134,0.292-0.272,0.477-0.416c0.185-0.144,0.4-0.292,0.647-0.446
			c0.277-0.144,0.526-0.257,0.747-0.339s0.414-0.123,0.578-0.123c0.318,0,0.601,0.077,0.847,0.23
			c0.247,0.154,0.457,0.396,0.631,0.725c0.206,0.636,0.4,1.227,0.585,1.771c0.113,0.318,0.239,0.554,0.376,0.708
			c0.139,0.154,0.296,0.231,0.471,0.231c0.133,0,0.254-0.026,0.361-0.077c0.107-0.052,0.208-0.129,0.301-0.231l0.615,1.417
			c-0.174,0.144-0.354,0.293-0.539,0.446c-0.184,0.154-0.363,0.303-0.539,0.447c-0.235,0.215-0.456,0.364-0.662,0.451
			c-0.205,0.087-0.41,0.134-0.615,0.134c-0.236,0-0.462-0.052-0.678-0.154c-0.215-0.103-0.4-0.257-0.554-0.462
			c-0.082-0.082-0.185-0.236-0.308-0.457s-0.267-0.492-0.431-0.821c-0.133-0.133-0.285-0.312-0.454-0.533s-0.367-0.478-0.593-0.775
			l-0.139-0.046c-0.195,0.062-0.388,0.153-0.578,0.276c-0.19,0.124-0.393,0.283-0.605,0.478c-0.462,0.411-0.795,0.668-1.001,0.771
			s-0.344,0.221-0.416,0.354c-0.144,0.247-0.39,0.565-0.737,0.955c-0.349,0.391-0.785,0.852-1.309,1.386
			c-0.133,0.134-0.267,0.262-0.4,0.391c-0.133,0.128-0.267,0.256-0.397,0.38c-0.134,0.112-0.285,0.189-0.454,0.235
			c-0.169,0.047-0.357,0.072-0.562,0.072c-0.41,0-0.634-0.144-0.669-0.426c-0.036-0.282-0.069-0.565-0.1-0.853
			c0.154-0.431,0.328-0.97,0.523-1.617c0.195-0.646,0.418-1.4,0.672-2.263c0-0.052,0.018-0.124,0.054-0.211
			c0.036-0.087,0.08-0.2,0.131-0.344c0.049-0.134,0.085-0.252,0.105-0.349c0.021-0.098,0.031-0.18,0.031-0.252
			s-0.026-0.128-0.077-0.169c-0.051-0.042-0.133-0.062-0.246-0.062c-0.103,0-0.239,0.062-0.408,0.185s-0.372,0.318-0.608,0.585
			c-0.287,0.308-0.518,0.549-0.693,0.724c-0.174,0.175-0.292,0.277-0.354,0.308c-0.103,0.072-0.223,0.175-0.362,0.309
			c-0.139,0.133-0.295,0.282-0.47,0.446c-0.021,0.041-0.051,0.103-0.092,0.185s-0.108,0.175-0.2,0.277
			c-0.041-0.154-0.113-0.344-0.216-0.569C326.864,308.992,326.73,308.71,326.566,308.371z"/>
		<path fill="#CF2027" d="M341.287,308.371l0.062-0.123c0.062-0.082,0.142-0.185,0.239-0.308s0.213-0.267,0.346-0.432
			c0.729-0.677,1.439-1.488,2.133-2.428s1.379-2.017,2.056-3.238c0.082-0.113,0.175-0.262,0.277-0.447
			c0.103-0.185,0.216-0.415,0.339-0.692c0-0.062-0.016-0.108-0.047-0.139c-0.03-0.031-0.082-0.046-0.153-0.046
			c-0.062,0-0.161,0.015-0.3,0.051s-0.244,0.057-0.316,0.057h-1.925c-0.082,0-0.218-0.005-0.407-0.016
			c-0.19-0.01-0.326-0.016-0.408-0.016c-0.104-0.051-0.198-0.097-0.285-0.133c-0.088-0.036-0.172-0.072-0.254-0.113
			c-0.123-0.041-0.219-0.098-0.285-0.164s-0.1-0.144-0.1-0.236c0-0.656,0.068-1.16,0.207-1.509s0.352-0.523,0.639-0.523
			c0.288,0,0.558,0.01,0.809,0.036c0.254,0.025,0.478,0.062,0.673,0.103c0.153-0.031,0.298-0.062,0.431-0.093
			c0.277,0,0.514,0.011,0.709,0.031s0.344,0.046,0.446,0.076c0.134-0.03,0.265-0.061,0.393-0.087
			c0.128-0.025,0.27-0.051,0.423-0.082l0.512,0.154c0.359-0.041,0.741-0.544,1.146-1.509c0.408-0.966,0.842-1.448,1.305-1.448
			c0.246,0,0.436,0.077,0.569,0.231s0.2,0.38,0.2,0.678c0,0.235-0.069,0.544-0.208,0.929s-0.218,0.678-0.239,0.872
			c0.019,0.041,0.047,0.083,0.082,0.129c0.037,0.046,0.088,0.103,0.16,0.164c0.061,0.041,0.102,0.107,0.128,0.205
			s0.038,0.221,0.038,0.365c0,0.615-0.027,1.088-0.084,1.421c-0.057,0.334-0.146,0.509-0.27,0.519l-1.042,0.216
			c-0.021,0.103-0.046,0.226-0.077,0.375c-0.031,0.148-0.072,0.323-0.123,0.519c-0.178,0.513-0.372,1.165-0.588,1.955
			c-0.215,0.791-0.457,1.725-0.727,2.803c-0.164,0.862-0.289,1.561-0.377,2.094c-0.088,0.534-0.131,0.894-0.131,1.078
			c0,0.164,0.025,0.287,0.077,0.37c0.052,0.082,0.128,0.123,0.231,0.123c0.061,0,0.284-0.149,0.669-0.446
			c0.386-0.298,0.921-0.739,1.609-1.325l0.601,1.417c-0.103,0.113-0.246,0.246-0.432,0.4c-0.185,0.154-0.405,0.318-0.662,0.493
			c-0.102,0.112-0.23,0.235-0.385,0.374s-0.323,0.303-0.508,0.488c-0.186,0.205-0.367,0.41-0.547,0.615
			c-0.18,0.206-0.361,0.406-0.547,0.601c-0.246,0.268-0.487,0.457-0.724,0.575c-0.235,0.118-0.456,0.18-0.662,0.18
			c-0.452,0-0.788-0.134-1.009-0.4s-0.33-0.673-0.33-1.217c0-0.595,0.02-1.113,0.061-1.55s0.108-0.785,0.201-1.052
			c0.041-0.083,0.071-0.154,0.092-0.216c0-0.103,0.016-0.241,0.047-0.416c0.03-0.175,0.066-0.38,0.107-0.616
			c0.062-0.4,0.128-0.801,0.199-1.201c0.113-0.246,0.231-0.508,0.355-0.785c0-0.051-0.041-0.098-0.124-0.139l-0.153,0.093
			c-0.154,0.246-0.354,0.503-0.602,0.774c-0.246,0.272-0.539,0.56-0.877,0.857c-0.523,0.503-1.058,1.012-1.602,1.524
			c-0.031,0.052-0.088,0.129-0.17,0.231s-0.174,0.23-0.277,0.385c-0.051-0.123-0.115-0.282-0.191-0.473
			c-0.078-0.189-0.156-0.405-0.239-0.651c-0.021-0.062-0.046-0.118-0.077-0.169C341.363,308.443,341.328,308.402,341.287,308.371z"
			/>
		<path fill="#CF2027" d="M349.818,308.371c0.123-0.215,0.281-0.436,0.477-0.656s0.441-0.447,0.739-0.683
			c0.03-0.206,0.062-0.411,0.093-0.611s0.051-0.4,0.062-0.605c0.03-0.144,0.079-0.313,0.146-0.508
			c0.067-0.195,0.142-0.406,0.225-0.632c0.092-0.226,0.217-0.508,0.377-0.847c0.158-0.339,0.367-0.719,0.623-1.14
			c0.216-0.236,0.441-0.498,0.678-0.78s0.473-0.564,0.709-0.852c0.112-0.093,0.235-0.18,0.369-0.262
			c0.133-0.083,0.267-0.175,0.4-0.277c0.123-0.041,0.262-0.077,0.416-0.108c0.153-0.03,0.322-0.046,0.508-0.046
			c0.256,0,0.465,0.025,0.623,0.077c0.16,0.051,0.291,0.139,0.393,0.262c0.072,0.082,0.142,0.205,0.209,0.369
			c0.066,0.165,0.131,0.364,0.191,0.601c0.031,0.205,0.067,0.432,0.108,0.678c0-0.062-0.019-0.036-0.054,0.077
			c-0.036,0.112-0.09,0.292-0.162,0.539l-0.139,0.492c-0.144,0.493-0.467,1.062-0.97,1.71c-0.503,0.646-1.181,1.386-2.032,2.217
			c-0.072,0.072-0.135,0.159-0.186,0.268c-0.051,0.107-0.076,0.226-0.076,0.349c0,0.216,0.037,0.405,0.115,0.569
			c0.076,0.165,0.188,0.288,0.33,0.37c0.082,0.062,0.213,0.123,0.393,0.185s0.394,0.118,0.64,0.17
			c0.4-0.031,0.765-0.098,1.093-0.201c0.329-0.103,0.621-0.226,0.879-0.369c0.051-0.031,0.133-0.077,0.246-0.134
			c0.113-0.056,0.226-0.128,0.338-0.221c0.134,0.298,0.252,0.565,0.354,0.801c0.103,0.236,0.185,0.441,0.247,0.616
			c-0.586,0.575-1.117,1.006-1.594,1.299c-0.479,0.292-0.916,0.441-1.316,0.441c-0.165,0.103-0.352,0.174-0.562,0.221
			c-0.211,0.046-0.459,0.072-0.747,0.072c-0.38,0-0.716-0.057-1.009-0.17s-0.536-0.277-0.73-0.493
			c-0.104-0.103-0.206-0.256-0.309-0.456s-0.211-0.437-0.323-0.714c-0.093-0.226-0.18-0.396-0.263-0.503
			c-0.082-0.107-0.174-0.159-0.276-0.159c-0.082,0-0.175,0.036-0.277,0.113s-0.216,0.194-0.339,0.349
			c-0.041-0.154-0.113-0.344-0.215-0.569C350.115,308.992,349.982,308.71,349.818,308.371z M354.745,303.367
			c-0.226,0-0.528,0.292-0.908,0.883c-0.38,0.59-0.569,1.026-0.569,1.304c0,0.062,0.012,0.103,0.038,0.128
			c0.025,0.026,0.079,0.041,0.161,0.041c0.113,0,0.205-0.062,0.277-0.18s0.139-0.226,0.201-0.328
			c0.112-0.103,0.223-0.216,0.33-0.334s0.213-0.23,0.316-0.344c0.123-0.144,0.215-0.287,0.277-0.431
			c0.061-0.145,0.092-0.288,0.092-0.432c0-0.092-0.018-0.169-0.054-0.226S354.817,303.367,354.745,303.367z"/>
		<path fill="#CF2027" d="M357.563,308.371c0.164-0.215,0.328-0.441,0.493-0.677c0.748-0.616,1.362-1.212,1.84-1.781
			c0.477-0.57,0.824-1.099,1.039-1.592l-0.154-0.738c0.134-0.257,0.465-0.56,0.994-0.909c0.527-0.349,0.957-0.523,1.285-0.523
			c0.35,0,0.645,0.103,0.885,0.308c0.242,0.206,0.476,0.421,0.701,0.647c0.113,0.071,0.195,0.128,0.246,0.169
			c0.411,0.309,0.719,0.734,0.924,1.278s0.309,1.206,0.309,1.986c0,0.411-0.159,0.996-0.478,1.761s-0.478,1.345-0.478,1.734
			c0,0.052,0.018,0.093,0.055,0.123c0.035,0.031,0.084,0.047,0.146,0.047c0.134,0,0.293-0.062,0.478-0.18
			c0.186-0.118,0.385-0.277,0.601-0.482c0.544-0.534,0.872-0.832,0.985-0.889c0.113-0.056,0.252-0.148,0.416-0.282
			c0.082,0.206,0.18,0.427,0.293,0.662c0.112,0.236,0.221,0.488,0.322,0.755c-0.092,0.082-0.197,0.18-0.314,0.293
			c-0.119,0.112-0.26,0.241-0.424,0.385c-0.35,0.257-0.804,0.564-1.363,0.929c-0.559,0.364-1.229,0.785-2.01,1.258
			c-0.205,0.134-0.441,0.241-0.708,0.323c-0.431,0-0.755-0.066-0.97-0.195c-0.216-0.128-0.324-0.333-0.324-0.621
			c0-0.112,0.023-0.246,0.07-0.395c0.046-0.149,0.109-0.309,0.191-0.482c0.062-0.134,0.129-0.272,0.201-0.411
			s0.133-0.277,0.185-0.421c0.226-0.646,0.397-1.247,0.516-1.802c0.118-0.554,0.177-1.052,0.177-1.493
			c0-0.544-0.084-0.96-0.254-1.248c-0.169-0.287-0.424-0.451-0.762-0.492c-0.227,0.123-0.473,0.298-0.739,0.523
			s-0.539,0.508-0.816,0.847c-0.298,0.37-0.564,0.673-0.8,0.909c-0.236,0.235-0.432,0.395-0.586,0.477
			c-0.092,0.154-0.241,0.329-0.446,0.523c-0.206,0.195-0.478,0.406-0.816,0.632c-0.021,0.041-0.052,0.103-0.093,0.185
			s-0.107,0.175-0.199,0.277c-0.082-0.236-0.175-0.473-0.277-0.703C357.799,308.854,357.687,308.618,357.563,308.371z"/>
		<path fill="#CF2027" d="M367.834,308.371l0.062-0.123c0.062-0.082,0.142-0.185,0.239-0.308s0.213-0.267,0.346-0.432
			c0.729-0.677,1.439-1.488,2.133-2.428s1.379-2.017,2.057-3.238c0.082-0.113,0.174-0.262,0.276-0.447
			c0.103-0.185,0.216-0.415,0.339-0.692c0-0.062-0.016-0.108-0.047-0.139c-0.03-0.031-0.082-0.046-0.153-0.046
			c-0.062,0-0.161,0.015-0.3,0.051s-0.244,0.057-0.316,0.057h-1.924c-0.083,0-0.219-0.005-0.408-0.016
			c-0.19-0.01-0.326-0.016-0.408-0.016c-0.104-0.051-0.198-0.097-0.285-0.133c-0.088-0.036-0.172-0.072-0.254-0.113
			c-0.123-0.041-0.219-0.098-0.285-0.164s-0.1-0.144-0.1-0.236c0-0.656,0.068-1.16,0.207-1.509s0.352-0.523,0.639-0.523
			c0.288,0,0.558,0.01,0.809,0.036c0.254,0.025,0.479,0.062,0.673,0.103c0.154-0.031,0.298-0.062,0.431-0.093
			c0.277,0,0.514,0.011,0.709,0.031s0.344,0.046,0.446,0.076c0.134-0.03,0.265-0.061,0.394-0.087
			c0.127-0.025,0.27-0.051,0.423-0.082l0.511,0.154c0.359-0.041,0.742-0.544,1.146-1.509c0.408-0.966,0.842-1.448,1.305-1.448
			c0.246,0,0.436,0.077,0.569,0.231s0.2,0.38,0.2,0.678c0,0.235-0.069,0.544-0.208,0.929c-0.138,0.385-0.218,0.678-0.238,0.872
			c0.018,0.041,0.046,0.083,0.082,0.129s0.087,0.103,0.159,0.164c0.062,0.041,0.103,0.107,0.128,0.205
			c0.026,0.098,0.038,0.221,0.038,0.365c0,0.615-0.027,1.088-0.084,1.421c-0.057,0.334-0.146,0.509-0.27,0.519l-1.042,0.216
			c-0.021,0.103-0.046,0.226-0.077,0.375c-0.031,0.148-0.072,0.323-0.123,0.519c-0.178,0.513-0.372,1.165-0.588,1.955
			c-0.215,0.791-0.457,1.725-0.727,2.803c-0.164,0.862-0.289,1.561-0.377,2.094c-0.087,0.534-0.131,0.894-0.131,1.078
			c0,0.164,0.025,0.287,0.077,0.37c0.052,0.082,0.128,0.123,0.231,0.123c0.061,0,0.284-0.149,0.67-0.446
			c0.385-0.298,0.921-0.739,1.608-1.325l0.601,1.417c-0.103,0.113-0.246,0.246-0.432,0.4c-0.184,0.154-0.404,0.318-0.662,0.493
			c-0.102,0.112-0.23,0.235-0.385,0.374s-0.322,0.303-0.508,0.488c-0.185,0.205-0.367,0.41-0.547,0.615
			c-0.18,0.206-0.361,0.406-0.547,0.601c-0.246,0.268-0.487,0.457-0.723,0.575c-0.236,0.118-0.457,0.18-0.662,0.18
			c-0.452,0-0.789-0.134-1.01-0.4s-0.33-0.673-0.33-1.217c0-0.595,0.02-1.113,0.061-1.55s0.108-0.785,0.201-1.052
			c0.041-0.083,0.071-0.154,0.092-0.216c0-0.103,0.016-0.241,0.047-0.416c0.03-0.175,0.066-0.38,0.107-0.616
			c0.062-0.4,0.129-0.801,0.2-1.201c0.112-0.246,0.231-0.508,0.354-0.785c0-0.051-0.041-0.098-0.123-0.139l-0.154,0.093
			c-0.154,0.246-0.354,0.503-0.601,0.774c-0.247,0.272-0.539,0.56-0.878,0.857c-0.523,0.503-1.057,1.012-1.602,1.524
			c-0.031,0.052-0.088,0.129-0.17,0.231s-0.174,0.23-0.276,0.385c-0.052-0.123-0.116-0.282-0.192-0.473
			c-0.077-0.189-0.156-0.405-0.238-0.651c-0.021-0.062-0.047-0.118-0.078-0.169C367.911,308.443,367.875,308.402,367.834,308.371z"
			/>
		<path fill="#CF2027" d="M376.857,307.694l1.401-0.924c0.052-0.052,0.112-0.124,0.185-0.211s0.154-0.211,0.246-0.375
			c0.072-0.133,0.168-0.246,0.285-0.339c0.118-0.092,0.254-0.174,0.408-0.246c0.082-0.103,0.2-0.23,0.354-0.385
			c0.153-0.154,0.349-0.334,0.585-0.539c0.113-0.062,0.257-0.154,0.432-0.272c0.174-0.117,0.363-0.271,0.569-0.467
			c0.935-0.883,1.753-1.545,2.456-1.986s1.296-0.662,1.778-0.662c0.267,0,0.465,0.057,0.593,0.17
			c0.129,0.112,0.193,0.271,0.193,0.477c0,0.216-0.039,0.406-0.116,0.57s-0.198,0.303-0.362,0.416
			c-0.256,0.185-0.533,0.39-0.831,0.615c-0.164,0.216-0.364,0.441-0.601,0.683s-0.514,0.482-0.832,0.719
			c-0.102,0.134-0.189,0.252-0.262,0.354c-0.051,0.051-0.148,0.144-0.292,0.277c-0.144,0.133-0.333,0.287-0.569,0.462
			c-0.104,0.226-0.326,0.519-0.67,0.877c-0.344,0.359-0.804,0.791-1.379,1.294c-0.071,0.072-0.199,0.236-0.385,0.492
			c-0.185,0.257-0.426,0.596-0.724,1.017l0.108,0.139c0.225-0.071,0.461-0.195,0.708-0.369c0.246-0.175,0.519-0.405,0.815-0.693
			c0.35-0.318,0.635-0.58,0.855-0.78s0.377-0.328,0.469-0.39c0.072-0.041,0.145-0.082,0.217-0.123
			c0.071-0.042,0.153-0.093,0.246-0.154c0.472-0.564,0.913-0.985,1.324-1.258c0.41-0.271,0.79-0.405,1.139-0.405
			c0.217,0,0.381,0.082,0.493,0.252c0.112,0.169,0.18,0.426,0.2,0.765c-0.021,0.513-0.031,1.006-0.031,1.478
			c-0.01,0.329,0.08,0.621,0.27,0.883c0.19,0.262,0.439,0.396,0.747,0.396c0.093,0,0.183-0.025,0.27-0.077
			c0.087-0.051,0.177-0.118,0.27-0.2c0.071-0.092,0.142-0.18,0.208-0.262s0.137-0.164,0.208-0.246
			c0.041-0.021,0.101-0.057,0.177-0.107c0.077-0.052,0.152-0.113,0.224-0.186c0.144,0.309,0.265,0.575,0.362,0.807
			c0.098,0.23,0.172,0.436,0.223,0.61c-0.236,0.216-0.47,0.437-0.701,0.667c-0.23,0.231-0.475,0.452-0.73,0.657
			c-0.309,0.236-0.605,0.411-0.894,0.529c-0.288,0.117-0.575,0.18-0.862,0.18c-0.668,0-1.181-0.19-1.54-0.57
			c-0.358-0.38-0.569-0.955-0.632-1.725c0-0.093-0.012-0.189-0.037-0.287c-0.026-0.098-0.08-0.195-0.162-0.298
			c-0.052,0.051-0.107,0.103-0.17,0.159c-0.062,0.057-0.133,0.133-0.215,0.226c-0.134,0.103-0.301,0.231-0.501,0.385
			c-0.2,0.154-0.434,0.339-0.7,0.555c-0.359,0.369-0.662,0.672-0.908,0.908c-0.247,0.236-0.422,0.405-0.524,0.509
			c-0.205,0.174-0.444,0.349-0.716,0.523c-0.271,0.174-0.578,0.354-0.916,0.539c-0.216,0.112-0.4,0.199-0.555,0.267
			c-0.154,0.066-0.267,0.103-0.339,0.103c-0.493,0-0.856-0.123-1.093-0.364s-0.354-0.611-0.354-1.114
			c0-0.277,0.06-0.544,0.177-0.795c0.119-0.252,0.295-0.493,0.531-0.729c0.021-0.134,0.031-0.241,0.031-0.323
			c0-0.051-0.014-0.107-0.039-0.164s-0.059-0.118-0.1-0.19c-0.062-0.144-0.131-0.308-0.208-0.487s-0.161-0.369-0.254-0.575
			c0.041-0.041,0.101-0.123,0.177-0.241C376.665,308.013,376.755,307.868,376.857,307.694z"/>
		<path fill="#CF2027" d="M388.207,308.371l0.092-0.107l0.046-0.154c0.277-0.38,0.765-0.878,1.463-1.488s1.181-1.104,1.448-1.483
			c0.102-0.164,0.221-0.282,0.354-0.354c0.133-0.071,0.268-0.107,0.4-0.107c0.359,0,0.662,0.087,0.908,0.267
			s0.411,0.452,0.493,0.812c0.071,0.318,0.139,0.636,0.2,0.96c0.062,0.323,0.113,0.651,0.154,0.98
			c0.071,0.205,0.158,0.513,0.262,0.929c0.102,0.416,0.18,0.657,0.23,0.719c0.051,0.103,0.129,0.175,0.23,0.221
			c0.104,0.046,0.231,0.071,0.386,0.071c0.185,0,0.374-0.035,0.569-0.103c0.195-0.066,0.396-0.18,0.602-0.344
			c0.153-0.134,0.314-0.272,0.484-0.41c0.17-0.139,0.336-0.272,0.5-0.406l0.616,1.417c-0.164,0.164-0.382,0.35-0.654,0.56
			s-0.599,0.457-0.978,0.734c-0.422,0.308-0.78,0.533-1.078,0.683c-0.298,0.148-0.523,0.226-0.678,0.226
			c-0.934,0-1.539-0.108-1.816-0.323c-0.277-0.216-0.586-0.816-0.924-1.802c-0.041-0.082-0.104-0.18-0.186-0.293
			c-0.082-0.112-0.174-0.246-0.277-0.4c-0.123-0.235-0.23-0.415-0.322-0.533c-0.094-0.118-0.17-0.175-0.232-0.175
			c-0.164,0-0.385,0.107-0.662,0.328c-0.276,0.221-0.615,0.555-1.016,0.996c-0.051-0.134-0.115-0.293-0.192-0.478
			s-0.157-0.4-0.239-0.646c-0.02-0.062-0.046-0.118-0.076-0.169C388.283,308.443,388.248,308.402,388.207,308.371z M394.643,296.222
			c0.257,0,0.444,0.052,0.562,0.154s0.177,0.252,0.177,0.446c-0.062,0.288-0.112,0.529-0.153,0.724
			c-0.104,0.37-0.193,0.673-0.27,0.909c-0.078,0.235-0.137,0.405-0.178,0.508c-0.092,0.226-0.218,0.421-0.377,0.591
			c-0.159,0.169-0.352,0.323-0.578,0.456c-0.235,0.165-0.434,0.277-0.592,0.345c-0.16,0.066-0.27,0.097-0.332,0.087
			c-0.174-0.021-0.341-0.041-0.5-0.057s-0.315-0.021-0.47-0.021c-0.134-0.072-0.239-0.211-0.315-0.416
			c-0.077-0.205-0.115-0.482-0.115-0.831c0-0.309,0.188-0.698,0.562-1.165c0.375-0.468,0.706-0.714,0.993-0.744
			c0.175-0.216,0.38-0.463,0.616-0.739c0.103-0.072,0.235-0.134,0.4-0.18C394.237,296.242,394.428,296.222,394.643,296.222z"/>
		<path fill="#CF2027" d="M397.014,308.371c0.041-0.071,0.096-0.153,0.162-0.241c0.066-0.087,0.146-0.189,0.238-0.312
			c0.104-0.082,0.236-0.2,0.4-0.354s0.35-0.334,0.555-0.539c0.186-0.205,0.41-0.462,0.678-0.765s0.59-0.667,0.971-1.099
			c0.164-0.175,0.369-0.4,0.615-0.672c0.246-0.272,0.539-0.596,0.878-0.976c0.288-0.339,0.595-0.59,0.924-0.755
			c0.329-0.164,0.678-0.246,1.047-0.246c0.37,0,0.642,0.113,0.816,0.344c0.175,0.231,0.262,0.57,0.262,1.012
			c0,0.235-0.087,0.688-0.262,1.354c-0.175,0.668-0.446,1.551-0.816,2.648c-0.093,0.206-0.179,0.4-0.262,0.586
			c-0.062,0.133-0.103,0.251-0.123,0.354s-0.03,0.18-0.03,0.231c0,0.062,0.035,0.139,0.107,0.23c0.051-0.03,0.1-0.071,0.146-0.123
			c0.046-0.051,0.1-0.112,0.161-0.185c0.083-0.154,0.208-0.318,0.378-0.487c0.169-0.17,0.371-0.354,0.607-0.56
			c0.093-0.175,0.213-0.35,0.362-0.519c0.149-0.17,0.315-0.323,0.501-0.467c0.041-0.042,0.094-0.108,0.161-0.2
			c0.067-0.093,0.146-0.19,0.239-0.293c0.133-0.134,0.292-0.272,0.477-0.416c0.186-0.144,0.4-0.292,0.646-0.446
			c0.277-0.144,0.526-0.257,0.747-0.339s0.413-0.123,0.577-0.123c0.318,0,0.602,0.077,0.848,0.23
			c0.246,0.154,0.457,0.396,0.631,0.725c0.205,0.636,0.4,1.227,0.586,1.771c0.112,0.318,0.238,0.554,0.377,0.708
			s0.295,0.231,0.469,0.231c0.135,0,0.255-0.026,0.362-0.077c0.108-0.052,0.208-0.129,0.3-0.231l0.617,1.417
			c-0.176,0.144-0.355,0.293-0.539,0.446c-0.186,0.154-0.365,0.303-0.539,0.447c-0.236,0.215-0.457,0.364-0.662,0.451
			s-0.411,0.134-0.616,0.134c-0.236,0-0.462-0.052-0.678-0.154s-0.4-0.257-0.554-0.462c-0.082-0.082-0.186-0.236-0.309-0.457
			s-0.267-0.492-0.432-0.821c-0.133-0.133-0.284-0.312-0.453-0.533c-0.17-0.221-0.367-0.478-0.594-0.775l-0.139-0.046
			c-0.195,0.062-0.387,0.153-0.577,0.276c-0.19,0.124-0.393,0.283-0.605,0.478c-0.462,0.411-0.796,0.668-1.001,0.771
			s-0.344,0.221-0.416,0.354c-0.144,0.247-0.39,0.565-0.736,0.955c-0.35,0.391-0.785,0.852-1.309,1.386
			c-0.134,0.134-0.268,0.262-0.4,0.391c-0.134,0.128-0.268,0.256-0.398,0.38c-0.133,0.112-0.285,0.189-0.453,0.235
			c-0.17,0.047-0.357,0.072-0.562,0.072c-0.41,0-0.635-0.144-0.67-0.426c-0.036-0.282-0.069-0.565-0.1-0.853
			c0.153-0.431,0.328-0.97,0.523-1.617c0.194-0.646,0.418-1.4,0.672-2.263c0-0.052,0.018-0.124,0.054-0.211s0.079-0.2,0.131-0.344
			c0.049-0.134,0.085-0.252,0.105-0.349c0.021-0.098,0.03-0.18,0.03-0.252s-0.025-0.128-0.076-0.169
			c-0.052-0.042-0.134-0.062-0.246-0.062c-0.104,0-0.239,0.062-0.408,0.185c-0.17,0.123-0.373,0.318-0.609,0.585
			c-0.287,0.308-0.518,0.549-0.692,0.724s-0.292,0.277-0.354,0.308c-0.102,0.072-0.223,0.175-0.361,0.309
			c-0.139,0.133-0.295,0.282-0.47,0.446c-0.021,0.041-0.052,0.103-0.093,0.185s-0.107,0.175-0.199,0.277
			c-0.041-0.154-0.113-0.344-0.217-0.569C397.312,308.992,397.179,308.71,397.014,308.371z"/>
		<path fill="#CF2027" d="M416.771,311.944c0,0.144-0.038,0.282-0.115,0.415c-0.077,0.134-0.192,0.262-0.347,0.386
			c-0.051,0.153-0.115,0.267-0.192,0.344c-0.077,0.076-0.177,0.118-0.3,0.118c-0.422,0-0.781-0.149-1.078-0.447
			c-0.298-0.298-0.534-0.739-0.709-1.324l0.107-0.107l-0.153-0.4c0.052-0.164,0.098-0.323,0.139-0.478s0.082-0.308,0.123-0.462
			c0.052-0.195,0.136-0.339,0.255-0.426c0.117-0.088,0.254-0.129,0.407-0.129c0.267,0,0.517,0.072,0.747,0.216
			s0.439,0.364,0.623,0.662c0.175,0.268,0.301,0.534,0.378,0.806C416.732,311.39,416.771,311.667,416.771,311.944z"/>
		<path fill="#CF2027" d="M437.512,308.356l0.617,1.416c-0.145,0.113-0.46,0.211-0.947,0.288c-0.488,0.082-1.121,0.153-1.902,0.215
			c-0.902,0.883-1.804,1.617-2.702,2.197c-0.898,0.585-1.788,1.017-2.671,1.294c-0.206,0.061-0.441,0.128-0.709,0.199
			c-0.164,0-0.344-0.03-0.539-0.097c-0.195-0.067-0.41-0.165-0.646-0.288c-0.246-0.153-0.437-0.303-0.57-0.446
			c-0.133-0.144-0.199-0.293-0.199-0.446c0-0.309,0.148-0.605,0.445-0.894c0.299-0.287,0.734-0.56,1.31-0.815
			c1.149-0.534,2.284-1.073,3.403-1.617c0.164,0,0.282,0.036,0.354,0.103c0.072,0.066,0.107,0.148,0.107,0.251
			c0,0.277-0.197,0.514-0.592,0.703c-0.396,0.19-0.594,0.324-0.594,0.406c0.072,0.103,0.135,0.154,0.186,0.154
			c0.133,0,0.428-0.201,0.885-0.602s0.681-0.651,0.67-0.754l-0.076-0.354l0.03-0.062c0.267-0.236,0.464-0.446,0.593-0.631
			c0.129-0.186,0.193-0.334,0.193-0.447c0-0.256-0.129-0.601-0.386-1.031c-0.257-0.432-0.642-0.949-1.155-1.556
			c-0.39-0.472-0.779-0.893-1.17-1.268s-0.765-0.708-1.124-0.996c-0.144-0.123-0.267-0.241-0.37-0.358
			c-0.102-0.118-0.184-0.231-0.246-0.334c-0.113-0.205-0.203-0.375-0.27-0.508c-0.066-0.134-0.125-0.221-0.177-0.263
			c-0.052-0.062-0.12-0.133-0.208-0.221c-0.087-0.087-0.192-0.189-0.315-0.303c-0.216-0.226-0.382-0.538-0.501-0.938
			c-0.117-0.4-0.177-0.898-0.177-1.494c0-0.391,0.054-0.765,0.161-1.129c0.108-0.365,0.266-0.693,0.471-0.98
			c0.03-0.062,0.061-0.134,0.092-0.216s0.066-0.175,0.107-0.277c0.236-0.482,0.637-1.001,1.201-1.561s1.305-1.154,2.218-1.78
			c0.123-0.062,0.272-0.145,0.446-0.247c0.175-0.103,0.37-0.236,0.586-0.4c0.123-0.103,0.259-0.194,0.408-0.277
			c0.148-0.082,0.325-0.159,0.531-0.23c0.276-0.113,0.59-0.236,0.939-0.37c0.513-0.267,0.938-0.462,1.277-0.585
			s0.596-0.185,0.77-0.185c0.34,0,0.594,0.103,0.763,0.308c0.169,0.206,0.254,0.503,0.254,0.894c0,0.432-0.033,0.785-0.101,1.058
			c-0.066,0.271-0.156,0.451-0.27,0.544c-1.211,0.965-2.186,1.693-2.926,2.182c-0.738,0.487-1.257,0.729-1.555,0.729
			c-0.144,0-0.256-0.041-0.338-0.123c-0.083-0.082-0.124-0.205-0.124-0.37c0-0.276,0.231-0.579,0.692-0.913
			c0.463-0.334,0.688-0.591,0.678-0.765l-0.139-0.093c-0.051,0-0.109,0.016-0.177,0.046c-0.066,0.031-0.136,0.072-0.208,0.124
			c-0.902,0.729-1.583,1.386-2.04,1.966c-0.456,0.579-0.685,1.083-0.685,1.514c0,0.339,0.059,0.683,0.176,1.032
			c0.119,0.349,0.291,0.708,0.517,1.077c0.164,0.257,0.403,0.585,0.716,0.98c0.313,0.396,0.711,0.868,1.193,1.422
			c0.668,0.771,1.181,1.365,1.54,1.786s0.56,0.642,0.601,0.662c0.205,0.268,0.38,0.534,0.523,0.801
			c0.145,0.268,0.241,0.523,0.293,0.771c0.051,0.194,0.087,0.436,0.107,0.724c0.021,0.287,0.031,0.637,0.031,1.047
			c0,0.241,0.035,0.38,0.107,0.416c0.072,0.035,0.189,0.057,0.354,0.057c0.062,0,0.111-0.016,0.146-0.041
			C437.433,308.428,437.471,308.397,437.512,308.356z"/>
		<path fill="#CF2027" d="M437.497,308.371c0.226-0.194,0.4-0.349,0.523-0.462c0.123-0.112,0.221-0.21,0.292-0.292
			c0.165-0.154,0.299-0.303,0.4-0.446c0.104-0.145,0.16-0.272,0.17-0.386c0.092-0.349,0.2-0.785,0.323-1.309
			c0.124-0.523,0.282-1.129,0.478-1.817c0.092-0.205,0.192-0.467,0.301-0.78c0.107-0.312,0.223-0.662,0.346-1.052
			c0.123-0.514,0.277-0.98,0.463-1.401c0.184-0.421,0.389-0.801,0.615-1.14c0.072-0.092,0.144-0.21,0.216-0.349
			c0.071-0.139,0.144-0.298,0.216-0.482c0.071-0.165,0.172-0.359,0.3-0.58s0.274-0.478,0.438-0.775
			c0.422-0.616,0.791-1.145,1.109-1.586s0.58-0.796,0.785-1.062c0.369-0.441,0.742-0.857,1.116-1.242s0.752-0.739,1.132-1.067
			c0.35-0.298,0.652-0.519,0.908-0.657c0.257-0.139,0.463-0.205,0.616-0.205c0.144,0.123,0.247,0.236,0.308,0.339
			c0.072,0,0.145-0.011,0.216-0.031c0.267,0,0.462,0.107,0.585,0.323s0.186,0.534,0.186,0.955c0,0.093-0.016,0.21-0.047,0.359
			c-0.031,0.148-0.072,0.333-0.123,0.549c-0.072,0.072-0.123,0.164-0.154,0.277c-0.03,0.113-0.057,0.226-0.076,0.339
			c-0.011,0.144-0.025,0.267-0.047,0.369c-0.02,0.104-0.046,0.195-0.076,0.277c-0.134,0.246-0.277,0.544-0.432,0.898
			s-0.318,0.77-0.492,1.242c-0.104,0.175-0.231,0.405-0.386,0.693c-0.153,0.287-0.339,0.605-0.554,0.954
			c-0.104,0.195-0.234,0.437-0.393,0.729c-0.16,0.292-0.362,0.631-0.609,1.011c-0.061,0.144-0.166,0.298-0.314,0.467
			c-0.149,0.17-0.326,0.37-0.531,0.596c-0.062,0.164-0.234,0.446-0.517,0.847s-0.675,0.919-1.178,1.556
			c-0.247,0.318-0.565,0.713-0.954,1.186c-0.391,0.472-0.842,1.031-1.355,1.679c-0.195,0.77-0.342,1.452-0.439,2.053
			s-0.146,1.124-0.146,1.565c0,0.175,0.014,0.303,0.039,0.391c0.025,0.087,0.074,0.133,0.146,0.133
			c0.051-0.071,0.125-0.153,0.223-0.246s0.197-0.2,0.301-0.323c0.195-0.175,0.424-0.498,0.686-0.971
			c0.262-0.472,0.562-1.083,0.9-1.832c0.297-0.678,0.564-1.201,0.801-1.565s0.432-0.58,0.585-0.651l0.539-0.231
			c0.103-0.041,0.194-0.077,0.276-0.108c0.083-0.03,0.149-0.046,0.201-0.046c0.133,0,0.256,0.082,0.369,0.247
			c0.113,0.164,0.205,0.39,0.277,0.677c0.133,0.524,0.241,0.924,0.323,1.206c0.082,0.283,0.128,0.452,0.139,0.504
			c0.134,0.308,0.296,0.533,0.485,0.677s0.418,0.216,0.686,0.216c0.318-0.051,0.692-0.123,1.123-0.216
			c0.082,0.206,0.178,0.427,0.285,0.662c0.107,0.236,0.219,0.488,0.331,0.755c-0.246,0.164-0.495,0.323-0.747,0.478
			c-0.251,0.153-0.5,0.308-0.746,0.462c-0.164,0.092-0.4,0.159-0.709,0.205c-0.308,0.047-0.667,0.072-1.078,0.072
			c-0.625,0-1.111-0.298-1.455-0.889c-0.344-0.59-0.551-0.877-0.623-0.867h-0.092c-0.165,0.205-0.337,0.416-0.517,0.632
			c-0.18,0.215-0.356,0.441-0.531,0.677c-0.112,0.236-0.272,0.509-0.478,0.816c-0.205,0.309-0.451,0.646-0.738,1.017
			c-0.34,0.41-0.637,0.719-0.894,0.924s-0.478,0.308-0.662,0.308c-0.39,0-0.696-0.046-0.917-0.133
			c-0.221-0.088-0.352-0.216-0.393-0.391c-0.123-0.574-0.218-1.078-0.284-1.504c-0.067-0.426-0.101-0.785-0.101-1.083
			c0-0.093,0.006-0.175,0.016-0.246c0.01-0.072,0.021-0.139,0.031-0.2c0.03-0.134,0.066-0.277,0.107-0.432
			c0-0.051-0.013-0.092-0.039-0.117c-0.025-0.026-0.068-0.036-0.131-0.036c-0.03,0.041-0.071,0.087-0.123,0.139
			c-0.051,0.051-0.123,0.107-0.215,0.169c-0.041-0.134-0.113-0.318-0.216-0.555C437.795,308.998,437.661,308.71,437.497,308.371z
			 M447.506,294.144c-0.113,0-0.338,0.2-0.678,0.605c-0.338,0.405-0.77,1.006-1.293,1.797c-0.298,0.441-0.59,0.877-0.878,1.313
			s-0.569,0.867-0.847,1.288c-0.123,0.123-0.213,0.247-0.27,0.37s-0.085,0.251-0.085,0.385c-0.205,0.575-0.405,1.114-0.601,1.617
			c-0.185,0.544-0.336,0.965-0.454,1.263c-0.118,0.297-0.188,0.472-0.208,0.523l0.077,0.076c0.206-0.185,0.38-0.379,0.523-0.585
			c0.206-0.235,0.454-0.544,0.747-0.919c0.293-0.374,0.623-0.811,0.993-1.313c0.37-0.473,0.749-1.073,1.14-1.797
			s0.811-1.555,1.263-2.499c0.257-0.514,0.448-0.924,0.577-1.232c0.129-0.308,0.192-0.523,0.192-0.646
			c0-0.072-0.013-0.134-0.038-0.18S447.588,294.144,447.506,294.144z"/>
		<path fill="#CF2027" d="M448.799,308.371l0.094-0.107l0.045-0.154c0.277-0.38,0.766-0.878,1.463-1.488
			c0.699-0.61,1.182-1.104,1.448-1.483c0.103-0.164,0.221-0.282,0.354-0.354c0.133-0.071,0.267-0.107,0.4-0.107
			c0.359,0,0.662,0.087,0.908,0.267s0.41,0.452,0.492,0.812c0.072,0.318,0.139,0.636,0.201,0.96c0.061,0.323,0.111,0.651,0.152,0.98
			c0.072,0.205,0.16,0.513,0.264,0.929c0.102,0.416,0.178,0.657,0.23,0.719c0.051,0.103,0.127,0.175,0.23,0.221
			s0.23,0.071,0.385,0.071c0.186,0,0.375-0.035,0.57-0.103c0.195-0.066,0.395-0.18,0.6-0.344c0.154-0.134,0.316-0.272,0.486-0.41
			c0.168-0.139,0.336-0.272,0.5-0.406l0.615,1.417c-0.164,0.164-0.383,0.35-0.654,0.56s-0.598,0.457-0.977,0.734
			c-0.422,0.308-0.781,0.533-1.078,0.683c-0.299,0.148-0.523,0.226-0.678,0.226c-0.936,0-1.541-0.108-1.817-0.323
			c-0.277-0.216-0.585-0.816-0.924-1.802c-0.041-0.082-0.103-0.18-0.185-0.293c-0.082-0.112-0.175-0.246-0.277-0.4
			c-0.123-0.235-0.23-0.415-0.324-0.533c-0.092-0.118-0.169-0.175-0.23-0.175c-0.164,0-0.385,0.107-0.662,0.328
			s-0.615,0.555-1.016,0.996c-0.052-0.134-0.116-0.293-0.193-0.478c-0.076-0.185-0.156-0.4-0.238-0.646
			c-0.021-0.062-0.047-0.118-0.077-0.169C448.877,308.443,448.84,308.402,448.799,308.371z M455.236,296.222
			c0.256,0,0.443,0.052,0.562,0.154c0.117,0.103,0.176,0.252,0.176,0.446c-0.061,0.288-0.113,0.529-0.154,0.724
			c-0.102,0.37-0.191,0.673-0.268,0.909c-0.078,0.235-0.137,0.405-0.178,0.508c-0.092,0.226-0.219,0.421-0.377,0.591
			c-0.16,0.169-0.352,0.323-0.578,0.456c-0.236,0.165-0.434,0.277-0.594,0.345c-0.158,0.066-0.269,0.097-0.33,0.087
			c-0.174-0.021-0.342-0.041-0.5-0.057c-0.16-0.016-0.316-0.021-0.471-0.021c-0.133-0.072-0.238-0.211-0.314-0.416
			c-0.078-0.205-0.116-0.482-0.116-0.831c0-0.309,0.188-0.698,0.562-1.165c0.375-0.468,0.707-0.714,0.994-0.744
			c0.174-0.216,0.379-0.463,0.615-0.739c0.104-0.072,0.236-0.134,0.4-0.18C454.83,296.242,455.021,296.222,455.236,296.222z"/>
		<path fill="#CF2027" d="M457.607,308.371c0.041-0.071,0.096-0.153,0.162-0.241c0.066-0.087,0.146-0.189,0.238-0.312
			c0.104-0.082,0.236-0.2,0.4-0.354s0.35-0.334,0.555-0.539c0.184-0.205,0.41-0.462,0.678-0.765c0.266-0.303,0.59-0.667,0.969-1.099
			c0.166-0.175,0.371-0.4,0.617-0.672c0.246-0.272,0.539-0.596,0.877-0.976c0.287-0.339,0.596-0.59,0.924-0.755
			c0.328-0.164,0.678-0.246,1.047-0.246c0.371,0,0.643,0.113,0.816,0.344c0.176,0.231,0.262,0.57,0.262,1.012
			c0,0.235-0.086,0.688-0.262,1.354c-0.174,0.668-0.445,1.551-0.816,2.648c-0.092,0.206-0.18,0.4-0.262,0.586
			c-0.061,0.133-0.102,0.251-0.123,0.354c-0.02,0.103-0.031,0.18-0.031,0.231c0,0.062,0.037,0.139,0.109,0.23
			c0.051-0.03,0.1-0.071,0.146-0.123c0.045-0.051,0.1-0.112,0.16-0.185c0.082-0.154,0.209-0.318,0.377-0.487
			c0.17-0.17,0.373-0.354,0.609-0.56c0.092-0.175,0.213-0.35,0.361-0.519c0.148-0.17,0.316-0.323,0.5-0.467
			c0.041-0.042,0.096-0.108,0.162-0.2c0.066-0.093,0.146-0.19,0.238-0.293c0.135-0.134,0.293-0.272,0.479-0.416
			c0.184-0.144,0.4-0.292,0.646-0.446c0.277-0.144,0.525-0.257,0.746-0.339s0.414-0.123,0.578-0.123c0.318,0,0.6,0.077,0.848,0.23
			c0.246,0.154,0.455,0.396,0.631,0.725c0.205,0.636,0.4,1.227,0.584,1.771c0.113,0.318,0.24,0.554,0.379,0.708
			s0.295,0.231,0.469,0.231c0.133,0,0.254-0.026,0.361-0.077c0.107-0.052,0.209-0.129,0.301-0.231l0.615,1.417
			c-0.174,0.144-0.354,0.293-0.539,0.446c-0.184,0.154-0.363,0.303-0.537,0.447c-0.236,0.215-0.457,0.364-0.662,0.451
			c-0.207,0.087-0.412,0.134-0.617,0.134c-0.236,0-0.461-0.052-0.678-0.154c-0.215-0.103-0.4-0.257-0.555-0.462
			c-0.082-0.082-0.184-0.236-0.307-0.457s-0.268-0.492-0.432-0.821c-0.133-0.133-0.285-0.312-0.455-0.533
			c-0.168-0.221-0.365-0.478-0.592-0.775l-0.139-0.046c-0.195,0.062-0.387,0.153-0.578,0.276c-0.189,0.124-0.393,0.283-0.605,0.478
			c-0.461,0.411-0.795,0.668-1,0.771s-0.344,0.221-0.416,0.354c-0.145,0.247-0.391,0.565-0.736,0.955
			c-0.35,0.391-0.785,0.852-1.309,1.386c-0.135,0.134-0.268,0.262-0.4,0.391c-0.135,0.128-0.268,0.256-0.398,0.38
			c-0.133,0.112-0.285,0.189-0.455,0.235c-0.168,0.047-0.355,0.072-0.561,0.072c-0.412,0-0.635-0.144-0.67-0.426
			c-0.037-0.282-0.07-0.565-0.102-0.853c0.154-0.431,0.33-0.97,0.523-1.617c0.195-0.646,0.42-1.4,0.674-2.263
			c0-0.052,0.018-0.124,0.053-0.211c0.037-0.087,0.08-0.2,0.131-0.344c0.049-0.134,0.086-0.252,0.105-0.349
			c0.021-0.098,0.031-0.18,0.031-0.252s-0.025-0.128-0.076-0.169c-0.053-0.042-0.135-0.062-0.248-0.062
			c-0.102,0-0.238,0.062-0.408,0.185c-0.168,0.123-0.371,0.318-0.607,0.585c-0.287,0.308-0.518,0.549-0.693,0.724
			c-0.174,0.175-0.293,0.277-0.354,0.308c-0.104,0.072-0.223,0.175-0.361,0.309c-0.139,0.133-0.295,0.282-0.471,0.446
			c-0.02,0.041-0.051,0.103-0.092,0.185s-0.107,0.175-0.201,0.277c-0.041-0.154-0.111-0.344-0.215-0.569
			C457.904,308.992,457.771,308.71,457.607,308.371z"/>
		<path fill="#CF2027" d="M472.328,308.371c0.123-0.215,0.283-0.436,0.479-0.656c0.193-0.221,0.441-0.447,0.738-0.683
			c0.031-0.206,0.062-0.411,0.092-0.611c0.031-0.2,0.053-0.4,0.062-0.605c0.031-0.144,0.08-0.313,0.146-0.508
			c0.066-0.195,0.141-0.406,0.223-0.632c0.092-0.226,0.219-0.508,0.377-0.847c0.16-0.339,0.367-0.719,0.625-1.14
			c0.215-0.236,0.441-0.498,0.676-0.78c0.236-0.282,0.473-0.564,0.709-0.852c0.113-0.093,0.236-0.18,0.369-0.262
			c0.135-0.083,0.268-0.175,0.4-0.277c0.123-0.041,0.262-0.077,0.416-0.108c0.154-0.03,0.324-0.046,0.508-0.046
			c0.258,0,0.465,0.025,0.625,0.077c0.158,0.051,0.289,0.139,0.393,0.262c0.07,0.082,0.141,0.205,0.207,0.369
			c0.066,0.165,0.131,0.364,0.193,0.601c0.029,0.205,0.066,0.432,0.107,0.678c0-0.062-0.018-0.036-0.055,0.077
			c-0.035,0.112-0.09,0.292-0.162,0.539l-0.137,0.492c-0.145,0.493-0.469,1.062-0.971,1.71c-0.504,0.646-1.182,1.386-2.033,2.217
			c-0.072,0.072-0.133,0.159-0.184,0.268c-0.053,0.107-0.078,0.226-0.078,0.349c0,0.216,0.039,0.405,0.115,0.569
			c0.078,0.165,0.188,0.288,0.332,0.37c0.082,0.062,0.213,0.123,0.393,0.185s0.393,0.118,0.639,0.17
			c0.4-0.031,0.766-0.098,1.094-0.201c0.328-0.103,0.621-0.226,0.877-0.369c0.051-0.031,0.133-0.077,0.246-0.134
			c0.113-0.056,0.227-0.128,0.34-0.221c0.133,0.298,0.25,0.565,0.354,0.801c0.104,0.236,0.186,0.441,0.246,0.616
			c-0.584,0.575-1.115,1.006-1.594,1.299c-0.477,0.292-0.916,0.441-1.316,0.441c-0.164,0.103-0.352,0.174-0.562,0.221
			c-0.209,0.046-0.459,0.072-0.746,0.072c-0.379,0-0.717-0.057-1.008-0.17c-0.293-0.113-0.537-0.277-0.732-0.493
			c-0.102-0.103-0.205-0.256-0.309-0.456c-0.102-0.2-0.209-0.437-0.322-0.714c-0.092-0.226-0.18-0.396-0.262-0.503
			s-0.176-0.159-0.277-0.159c-0.082,0-0.174,0.036-0.277,0.113s-0.215,0.194-0.338,0.349c-0.041-0.154-0.113-0.344-0.217-0.569
			C472.627,308.992,472.492,308.71,472.328,308.371z M477.256,303.367c-0.227,0-0.529,0.292-0.908,0.883
			c-0.381,0.59-0.57,1.026-0.57,1.304c0,0.062,0.014,0.103,0.039,0.128c0.025,0.026,0.08,0.041,0.162,0.041
			c0.113,0,0.205-0.062,0.277-0.18c0.07-0.118,0.139-0.226,0.199-0.328c0.113-0.103,0.223-0.216,0.332-0.334
			c0.107-0.118,0.213-0.23,0.314-0.344c0.123-0.144,0.217-0.287,0.277-0.431c0.062-0.145,0.092-0.288,0.092-0.432
			c0-0.092-0.018-0.169-0.053-0.226C477.381,303.393,477.328,303.367,477.256,303.367z"/>
		<path fill="#CF2027" d="M484.955,310.065c0.318,0,0.57,0.036,0.754,0.113c0.186,0.076,0.299,0.185,0.34,0.317l-0.154,1.187
			c-0.031,0.144-0.051,0.287-0.062,0.436c-0.01,0.149-0.029,0.298-0.061,0.441c-0.051,0.134-0.139,0.231-0.262,0.293
			s-0.293,0.092-0.508,0.092c-0.164,0-0.393,0.036-0.686,0.113s-0.516,0.118-0.67,0.118c-0.236,0-0.414-0.107-0.531-0.318
			c-0.119-0.21-0.178-0.534-0.178-0.976c0-0.41,0.229-0.815,0.686-1.216S484.523,310.065,484.955,310.065z M484.646,300.457
			c0.113-0.339,0.201-0.637,0.262-0.894c0.062-0.257,0.094-0.473,0.094-0.646c0-0.093-0.014-0.216-0.039-0.364
			c-0.025-0.149-0.043-0.503-0.055-1.068c-0.061,0.021-0.127,0.031-0.199,0.031l-0.262-0.17l-0.047-0.215
			c0-0.236,0.074-0.58,0.225-1.032c0.148-0.451,0.213-0.785,0.191-1.001l-0.016-0.815c-0.02-0.145-0.012-0.309,0.023-0.488
			s0.096-0.359,0.178-0.544c0.082-0.226,0.174-0.41,0.277-0.549c0.102-0.139,0.215-0.226,0.338-0.268
			c0.051-0.03,0.111-0.062,0.178-0.087s0.131-0.046,0.191-0.066c0.195-0.154,0.381-0.303,0.555-0.441s0.334-0.277,0.479-0.421
			c0.256-0.175,0.49-0.313,0.699-0.416c0.211-0.103,0.398-0.154,0.562-0.154c0.133,0,0.229,0.062,0.285,0.19
			c0.057,0.128,0.084,0.323,0.084,0.58c0,0.153-0.018,0.354-0.053,0.605c-0.037,0.252-0.096,0.544-0.178,0.873
			c-0.082,0.338-0.148,0.631-0.201,0.877c-0.051,0.246-0.082,0.447-0.092,0.601c-0.01,0.226-0.057,0.632-0.139,1.222
			s-0.205,1.35-0.369,2.273c-0.113,0.616-0.252,1.396-0.416,2.346c-0.164,0.95-0.354,2.054-0.57,3.306
			c0,0.113-0.012,0.247-0.037,0.4c-0.025,0.154-0.055,0.345-0.086,0.57c-0.02,0.062-0.045,0.128-0.076,0.205
			s-0.072,0.159-0.123,0.241c-0.021,0.072-0.057,0.293-0.107,0.667c-0.053,0.375-0.107,0.909-0.17,1.597
			c-0.031,0.195-0.301,0.514-0.809,0.96s-0.85,0.672-1.023,0.672c-0.113-0.01-0.186-0.041-0.217-0.092
			c0-0.052-0.004-0.149-0.014-0.293c-0.012-0.144-0.016-0.251-0.016-0.323l0.152-0.631c-0.041-0.37-0.082-0.729-0.123-1.078
			c0-0.236,0.008-0.462,0.023-0.678s0.033-0.426,0.055-0.631c0.061-0.236,0.123-0.427,0.184-0.57
			c0.031-0.103,0.057-0.21,0.078-0.323c0.02-0.113,0.031-0.205,0.031-0.277c-0.012-0.267-0.016-0.519-0.016-0.755
			c0,0.052,0.002,0.021,0.008-0.092c0.004-0.113,0.012-0.293,0.021-0.539c0.021-0.093,0.031-0.185,0.031-0.271
			c0-0.088,0-0.18,0-0.283c0.113-0.318,0.193-0.621,0.238-0.908C484.686,301.001,484.688,300.724,484.646,300.457z"/>
	</g>
</g>
</svg>
